<svg xmlns="http://www.w3.org/2000/svg" viewBox="0 0 673.21 511.51"><defs><style>.cls-1,.cls-13,.cls-14,.cls-4,.cls-9{fill:#fff;}.cls-2{fill:#ffdf00;}.cls-10,.cls-11,.cls-12,.cls-13,.cls-2,.cls-3,.cls-4,.cls-6,.cls-8{stroke:#000;stroke-width:2px;}.cls-10,.cls-11,.cls-12,.cls-2,.cls-3,.cls-4,.cls-6,.cls-8{stroke-miterlimit:10;}.cls-3,.cls-5{fill:#009ae4;}.cls-6{fill:#ff2c1f;}.cls-7,.cls-9{opacity:0.1;}.cls-8{fill:#888;}.cls-10,.cls-11{fill:none;}.cls-11{stroke-linecap:round;}.cls-12{fill:#daefed;}.cls-13{stroke-linejoin:round;}.cls-14{font-size:104.24px;font-family:BlowBrush;}.cls-15{letter-spacing:-0.07em;}.cls-16{letter-spacing:-0.04em;}.cls-17{letter-spacing:-0.05em;}.cls-18{letter-spacing:0em;}.cls-19{letter-spacing:-0.02em;}.cls-20{letter-spacing:-0.06em;}</style></defs><title>bart</title><g id="Laag_2" data-name="Laag 2"><g id="Laag_1-2" data-name="Laag 1"><path class="cls-1" d="M44.24,242.4c.93-1.72,3.27-2.27,5-2,2.36.4,2.55,2.29,5,3,2.21.63,3.23-.65,5.94-1,3.72-.47,5.21,1.5,9.91,3,3.93,1.23,7,1.14,11.9,1,3.06-.09,3.56-.38,13.87-2,9.22-1.43,10.76-1.51,12.89-1,4.22,1,4.46,2.83,8.92,5,6.51,3.1,12.9,2.56,19.82,2,8.92-.75,9.48-2.68,15.86-2a54.89,54.89,0,0,1,11.9,3c3.75,1.36,4.8,2.16,6.93,3,6.65,2.52,12.51.87,17.85,0,13.91-2.29,26.4.3,34.13,1.91,10.45,2.17,12,4.32,19.39,4,4.74-.18,8-1.2,15.86-1a48.11,48.11,0,0,1,9.91,1c6.42,1.41,6.34,3,11.89,4,5.32.94,6.18-.36,11.9,1,4.21,1,4,1.75,6.94,2,4.22.33,6.13-1.12,9.91,0,2.31.69,1.68,1.26,4,2,5.37,1.7,9.14-1.36,11.9,1,.89.77.86,1.4,2,2,1.87,1,4,.28,4.95,0,4.83-1.44,14.18-2.63,17.85,1,.84.83.93,1.47,2,2,2.14,1,4.27-.39,6.94-1a16.24,16.24,0,0,1,8.92,1c8.68,3.58,9.51,21.84,6.93,22.8-1.94.72-5.54-8.57-10.9-7.93-2,.24-3.72,1.85-5.95,1-1.7-.66-2.35-2.24-3-2-1,.4.74,4.32-1,5.94a3.16,3.16,0,0,1-4,0c-.68-.67-.5-1.59-.5-3.47,0-3.16,0-5.25-1-6.93s-3.65-3.69-5.95-3a5.26,5.26,0,0,0-3.28,5.11c.1,1.2.77,2,.31,2.82a2,2,0,0,1-2,1c-1.52-.36-.87-3.34-3-5.94a10.16,10.16,0,0,0-4.95-3c-3.62-1.28-4,0-6.94-1-3.71-1.31-8.08-5.2-8.92-5.95a3.12,3.12,0,0,0-2-1c-1.28,0-2.39,1.23-4,3a12.36,12.36,0,0,1-2,2c-1,.71-1.42,1.06-2,1-1.41-.18-1.51-2.75-3-3a2.55,2.55,0,0,0-2,1,4.53,4.53,0,0,0-1,3c-.17,2.29.61,3.39,0,4a1.68,1.68,0,0,1-2,0c-1.66-1.37,2-6.06,0-9.92a4.37,4.37,0,0,0-2-2c-.74-.34-2.17-.69-3,0s-.16,1.94-1,3a3.41,3.41,0,0,1-3,1c-2.71-.38-2.52-4.05-5.95-6a49.13,49.13,0,0,0-5.95-1c-4.54-.66-6.4-.9-6.94,0a5.7,5.7,0,0,0,0,2c.14,2,.37,2.61,0,3-.53.54-1.8.07-2,0-2.67-1-2.38-4.19-4.95-5.94a7,7,0,0,0-4-1c-6-.3-11.86-1.92-17.84-2-18.19-.21-27.28-.32-35.68-2-7.3-1.44-9.06-2.68-17.84-4-9-1.32-13.66-1.95-18.84,0a24.06,24.06,0,0,1-6.93,2,23.26,23.26,0,0,1-8.92-1c-12.61-3.39-13.43-5.27-19.83-6-5-.53-4.72.61-10.9,0s-6.91-1.83-13.88-3c-4-.66-8-.77-15.86-1-9.89-.28-10.48.36-12.51-.07a6.67,6.67,0,0,0-3.34.07,7,7,0,0,0-2,1c-2.42,1.49-6,.75-7.93,0-3.19-1.27-2.79-3.1-5.94-4a9.24,9.24,0,0,0-5,0c-2.21.66-2.25,1.71-4,2a6.17,6.17,0,0,1-5.95-3C44.52,246.48,43.23,244.29,44.24,242.4Z"/><path class="cls-2" d="M488.29,405a37.9,37.9,0,0,0-14.87,11.9c-11.68,15.85-5.74,35.25-5,37.66l-1,25.77,29.74-6.94c.08-6.87,0-12.36,0-15.86-.18-14-.7-18.65,2.48-23.29a18.4,18.4,0,0,1,8.42-6.44Z"/><path class="cls-3" d="M466.48,459.47c-9.6,6.13-17.27,11.67-22.8,15.86-9.62,7.29-13.28,10.87-12.88,14.86.34,3.39,3.49,5.89,6.94,7.93,26.2,15.54,64.46,2.09,74.34-3,2.83-1.46,5.89-3.53,6.93-6.94s-.29-6.57-2-9.91a87.83,87.83,0,0,0-13.88-19.82,40.06,40.06,0,0,1-36.67,1Z"/><path class="cls-4" d="M603.26,484.25a13.35,13.35,0,0,0-1,9.91c1.53,5,6,7.4,6.94,7.93a17.82,17.82,0,0,0,8.92,2c4.12,0,16.22.44,32.69.8a12.9,12.9,0,0,0,6.46-1.3c5.71-2.91,7.54-10,8.92-17.84a181.73,181.73,0,0,0,2.48-37.17c-.18-5.82-2.09-9-5-10.9-4.82-3.21-11.41-.61-12.88,0a33,33,0,0,0-8.31,3.95c-10,6.6-14.36,17.57-16.43,22.72l0,.09a60.07,60.07,0,0,0-3.47,12.39C614.07,475.41,606.29,478.51,603.26,484.25Z"/><path class="cls-3" d="M490.27,380.17c-2.44,1.87-4.43,3.58-5.95,5a81.51,81.51,0,0,0-5.94,5.95c-2.44,2.72-3.65,4.08-4,4.95-.65,1.78-.79,4.71,5.95,14.87,3.81,5.75,5.72,8.62,8.92,11.89,3.4,3.48,9.54,6.95,21.8,13.88a7.24,7.24,0,0,0,3,1,9,9,0,0,0,5.94-2c6-4.25,12.6-11.66,16.85-15.86,3.16-3.12,4.64-6.73,7.93-6.94,1.37-.08,1.48.44,4,1,5.83,1.31,8.57-.81,10.9,1,1.16.9,1.08,1.89,2,5,1.2,4.07,3.07,10.42,6.94,12.89,2.65,1.68,5.87,1.29,10.9,0,12.69-3.27,22.76-8.55,32.71-14.87,11.19-7.11,14.38-10.54,14.87-14.87a16.72,16.72,0,0,0-1-6.94c-1.19-3.54-3.43-6-7.93-10.9-4.87-5.32-7.31-8-8.7-8.75a2.9,2.9,0,0,1-1.21-1.16,3.91,3.91,0,0,1,0-3c.73-2.29.95-4.76,2-6.93,2.35-5,.72-13.71,0-15.86-3.52-10.57-35.56-14-62.44-6.94C519.42,350,500.54,368,490.27,380.17Z"/><path class="cls-2" d="M573.53,423.79a48.6,48.6,0,0,0,7.93,16.84c9.87,13.41,23.87,17.61,28.74,18.84a20.06,20.06,0,0,0,8.92-3c10-6.34,9.93-19.62,9.91-20.81-.95-.22-2.32-.54-4-1a71.83,71.83,0,0,1-8.92-3c-5.21-2.37-8.27-6.62-9.91-8.92-6.27-8.72-6.15-18.39-6-21.8-10.92-1.71-20.71,1.21-24.78,7.93a14.55,14.55,0,0,0-2,5.94Z"/><path class="cls-5" d="M567.58,431.71c2.3-4.42,11.27-20.36,30.73-27.75a57.13,57.13,0,0,1,28.74-3q-6.93-5-13.88-9.91l-24.77-2-22.8,24.78Z"/><path class="cls-3" d="M633,435.68c3.58-1,7-.69,13.87,0,2.9.29,5.29.68,6.94,1,.45.22,1,.56,1,1,0,.95-2.33,1.73-3,2-3.22,1.29-5.75,6.43-7.93,19.83-1.44,8.89-.63,8.5-2,15.86-1.64,8.94-2.54,13.49-5.95,16.85-5.55,5.46-13.37,5-13.87,4.95-4.9-.37-8.45-2.85-12.89-5.95-4-2.78-5.55-3.33-6-4.95-.76-3.13,2.32-6.27,3.47-7.44,4.11-4.18,9.57-4.83,11.9-5a56.56,56.56,0,0,1-1-12.89c.23-6,.39-10.24,3-14.86C621.46,444.57,625.46,437.85,633,435.68Z"/><path class="cls-6" d="M370.34,275.11v21.81h10.9v-22.8Z"/><path class="cls-7" d="M370.34,275.11v21.81h10.9v-22.8Z"/><path class="cls-6" d="M362.41,318.72q8.93,46.59,17.84,93.17A55.62,55.62,0,0,0,423.86,399q-9.92-43.12-19.82-86.24c-24,1.16-31.76,2.67-33.7,4a11.6,11.6,0,0,1-5,2A11,11,0,0,1,362.41,318.72Z"/><path class="cls-8" d="M362.41,318.72a9.17,9.17,0,0,1-2.57-.75,6.45,6.45,0,0,1-3.38-3.21c-.1-.24-1.1-2.64,0-4,.6-.73,1.29-.47,2-1,1.65-1.22.48-4.58.5-7.43,0-6,5.3-10.38,5.91-10.88l0,0c5.13-4.1,18.17-3.59,21.31,2.48,3.86,7.48-9.66,18.8-10.91,19.83C375.29,313.77,368.37,319.47,362.41,318.72Z"/><path class="cls-9" d="M365.38,311.78a9.83,9.83,0,0,1-5.94-1,5.71,5.71,0,0,0,0,2c.53,3.09,3.43,4.68,4,5h5v-6.94A9.33,9.33,0,0,1,365.38,311.78Z"/><path class="cls-9" d="M362,304.68a9.2,9.2,0,0,0-.6,2.15,9.41,9.41,0,0,0,0,3,6.49,6.49,0,0,0,3,1,6.65,6.65,0,0,0,4-1l3-4h0c-4.29.68-6.2,1-7.93,0A5.22,5.22,0,0,1,362,304.68Z"/><path class="cls-8" d="M425.84,395c1.2.11,2.12,1.45,2.48,2.48.95,2.68-1,5.59-2,6.94-1.24,1.75-5.37,6.78-21.31,10.4,0,0-17.26,3.92-26.27-.49-1.05-.52-3.38-1.69-4-4-.27-1-.38-3.09,1-4a3.65,3.65,0,0,1,3,0c5.09,1.77,17.88,1,22.3.5,7.54-.91,18.55-5.68,21.81-9.92C423.2,396.59,424.42,394.91,425.84,395Z"/><path class="cls-10" d="M362.41,318.72a9.17,9.17,0,0,1-2.57-.75,6.45,6.45,0,0,1-3.38-3.21c-.1-.24-1.1-2.64,0-4,.6-.73,1.29-.47,2-1,1.65-1.22.48-4.58.5-7.43,0-6,5.3-10.38,5.91-10.88l0,0c5.13-4.1,18.17-3.59,21.31,2.48,3.86,7.48-9.66,18.8-10.91,19.83C375.29,313.77,368.37,319.47,362.41,318.72Z"/><path class="cls-2" d="M463,352.92c-1.13.76-2.15.85-4.95,1-17,.82-25.49,1.24-33.7-2a49.72,49.72,0,0,1-11.4-6.45c-10.2-7.23-10.93-12.27-19.82-17.84-4.73-3-8.73-4.16-10.91-6.94-.35-.45-1.65-2.2-3-2a2.14,2.14,0,0,0-1.15.77c-1.67,1.61-5.58,1.93-7.77.22-2-1.57-2-4.42-2-5.94a8.89,8.89,0,0,1,2-5.95c1.48-1.69,3.34-2.23,6-3,2.81-.8,5-.84,4.95-1a14.87,14.87,0,0,0-4,0,55.09,55.09,0,0,0-5.95,1c-4.43.76-6.65,1.14-7.93,0-1.65-1.46-1.07-4.54-1-4.95,1.11-5.55,8.31-8.31,9.91-8.92,7.19-2.76,12-.69,12.89-3,.81-2-2-5.59-5-6.94a23.72,23.72,0,0,0-5-1c-4.63-.71-5.52-.57-6.44-1.49a5.23,5.23,0,0,1-1-5c.91-3,4.48-4.17,6.94-4.95a17.83,17.83,0,0,1,11.89,0c4.09,1.54,6.25,4.27,9.91,8.92a45.34,45.34,0,0,1,5.95,9.91c2.22,5.07,1.36,5.63,3,8.92,2.63,5.37,7,8.15,12.89,11.89,3.51,2.24,7.29,4.64,12.89,5.95,3.18.75,5.75.83,10.9,1,9.88.32,10.46-.77,12.88,0C466.22,318.82,471.36,347.33,463,352.92Z"/><path class="cls-2" d="M576,277.59c3.22.54,6.53,1.2,9.91,2a168.74,168.74,0,0,1,43.61,16.85c.22-.5.55-1.18,1-2,1.35-2.45,5.16-9.38,11.89-10.91,1-.23,5.11-1.15,6.94,1,1.52,1.77.93,5,0,6.93-1.23,2.56-3.12,3-4,6-.19.65-.7,2.46,0,3,.49.36,1.59.08,6.94-4,5.1-3.86,6-5.07,7.92-5a6.07,6.07,0,0,1,5,4c1.44,4.26-3.49,9.38-5,10.9-2.33,2.43-4.22,3.3-4,4,.61,1.59,11.34-3.14,14.87,1a5.17,5.17,0,0,1,1,4c-.42,2.43-2.69,3.55-10.9,7.93-5.3,2.82-8,4.25-8.92,5-4.2,3.08-4.55,4.68-7.93,5.94a20.46,20.46,0,0,1-7.93,1,31.66,31.66,0,0,1-6.94-1c-10.82-2.88-19.9-13-30.73-15.85-2.59-.7-2.43-.18-6.94-1-7.42-1.34-12.85-2.39-17.34-6.44a15.8,15.8,0,0,1-4-5c-3.32-6.77-.84-14.77,2-20.82C573.69,282.54,574.85,280.07,576,277.59Z"/><path class="cls-2" d="M476.89,300.38a3,3,0,0,1-1,0c-2.44-.44-2.47-4-5-4.95-.37-.15-.38-.08-3,0a41.17,41.17,0,0,1-6,0,8.44,8.44,0,0,1-5.95-5.95c-.19-.78-.94-3.7,1-6a6.35,6.35,0,0,1,4.95-2l-12.88-14.87h-1c-21.81,0-25.18,0-29.74-2-2.13-.93-1.08-.79-6.94-4-6.9-3.74-8.93-4.24-10.9-6.94-.58-.79-3.24-4.64-2-7.93.61-1.61,1.55-1.45,4-4a22.38,22.38,0,0,0,5-7.93,19.36,19.36,0,0,0,1-5.95c-.48,0-1.17,0-2,0a21.36,21.36,0,0,1-5.95-1c-1.87-.64-5.34-1.82-6.94-5a11.51,11.51,0,0,1-1-4,11.67,11.67,0,0,1,0-5,10.12,10.12,0,0,1,5-5.95,9.91,9.91,0,0,1,3-1h12.88v-2c0-11.94.08-18,1.49-22.3a27.07,27.07,0,0,1,6.44-10.41,10,10,0,0,1-4.95-4,8.61,8.61,0,0,1,0-7.93,9.72,9.72,0,0,1,6.94-5,13.77,13.77,0,0,0,1-2,14.58,14.58,0,0,0,1-5.95c-.12-4.63.95-9.24,1-13.87.05-5.19.65-16.74,2.9-43.77-.07-.5-.05-.78.07-.84.36-.15,1.57,1.62,3.63,5.33.05.34.17.55.34.62q1.32.56,7.15-9.54c.25-1.07.55-1.33.78-1.36,1.29-.2,4.63,6,4.75,10.24,0,.21,0,.57.2.66.91.44,4.55-5.26,7.49-10.16.09-.42.24-.67.44-.74q1.65-.57,8.31,13.55c.09.76.29,1.2.61,1.32q1.59.59,7-9.19c.33-1.38.68-1.69.94-1.72,1.26-.12,4.23,6,4.54,12.12,0,.81,0,1.62.42,1.76,1.06.38,3.92-4.85,6.25-9.52.07-.55.24-1.19.69-1.38,1-.43,2.67,1.62,3,2s3.93,4.9,3,9.91c-.12.66-.41,1.72,0,2s1.39-.49,2-1a54,54,0,0,0,5.94-5.94c.21-.44.53-.93,1-1,1.17-.15,2.47,2.59,3,4a13.18,13.18,0,0,1,1,6.94c-.09.51-.18.84,0,1,.72.61,4.66-2.89,8.12-6.21,1-1.58,1.51-1.8,1.79-1.72l.07,0c1.23.69,2.41,11.5,2.41,11.5.07.66.13,1.13.49,1.35,1.26.78,4.66-2.46,7.44-5.45.42-.52,1.47-1.7,2.47-1.48.6.12,1.22.75,2,4a37.5,37.5,0,0,1,1,7.55c-.27.93-.15,1.25,0,1.37.83.63,5.13-2.33,8.17-6.21.91-1.16,1.2-1.75,1.74-1.72,1.61.09,4,5.48,3.68,10.16,0,.59-.16,1.46.28,1.74.79.49,2.43-1.48,5-3,.71-.42,5.37-3.18,6.94-2,2.23,1.7-2,11.27-9.91,28.74-1.65,3.63-12.68,27.66-19.83,51.54-.43,1.47-1,3.52-1.7,6.08-2.94,11.3-6.14,23.49-5.23,38.53a105.72,105.72,0,0,0,4,22.14c.37,1.17.5,1.54.5,1.54.65,1.84,1,2.15.91,2.58-.24,1.5-4.69,2-5,2h0c-7.83,1-17.85,7.93-17.85,7.93A85.22,85.22,0,0,0,486.31,290a28,28,0,0,1-5,7.93A7.24,7.24,0,0,1,476.89,300.38Z"/><path class="cls-11" d="M542.8,122.47l-9.91,9.91c-.94,1-1.58,1.06-2,1-2-.35-1.65-5.45-5.4-10.56-1.13-1.54-1.69-2.31-2.53-2.32-2.1,0-3.09,4.52-8.19,9.32-1.32,1.24-2,1.62-2.71,1.58-2.65-.14-4.56-5.48-5.16-7.16a23.57,23.57,0,0,1-.79-2.75"/><path class="cls-11" d="M433.77,93.73c1.24,4.33,2.44,7.86,3.36,10.42,1.13,3.17,1.62,4.24,2.59,4.44,2.2.47,5.35-3.82,6.73-6.14s1.53-3.7,2.19-3.77c1-.11,2.79,2.75,5.95,15.86"/><ellipse class="cls-4" cx="431.3" cy="193.83" rx="18.34" ry="25.77"/><path class="cls-4" d="M449.63,267.18c5.4-2.85,14-6.36,23.79-5.95,4.55.2,7.5,1.15,9.91,3,.8.6,5.72,4.47,5,8.92-.65,3.79-5.05,5.69-7.93,6.94-7.36,3.18-14.65,2.07-18.83,1Z"/><line class="cls-11" x1="459.54" y1="263.22" x2="472.43" y2="282.05"/><line class="cls-11" x1="470.45" y1="261.23" x2="483.33" y2="278.08"/><path class="cls-11" d="M642.91,307.82A53.54,53.54,0,0,0,623.09,293"/><path class="cls-6" d="M542.8,277.09c-.87,4,5.4,5.05,13.88,16.85,4.58,6.38,9.93,13.83,10.46,15a6.16,6.16,0,0,0,1.26,1.74l.17.15c1.62,1.27,4.4.75,5.95,0,3.31-1.61,4.15-5.85,5-9.91a33.29,33.29,0,0,0-1-16.85,34.25,34.25,0,0,0-4-7.93c-2.07-3.18-3.11-4.77-5-6-4.12-2.62-9.22-1.25-13.87,0C549.58,271.8,543.61,273.4,542.8,277.09Z"/><path class="cls-10" d="M463,352.92c-1.13.76-2.15.85-4.95,1-17,.82-25.49,1.24-33.7-2a49.72,49.72,0,0,1-11.4-6.45c-10.2-7.23-10.93-12.27-19.82-17.84-4.73-3-8.73-4.16-10.91-6.94-.35-.45-1.65-2.2-3-2a2.14,2.14,0,0,0-1.15.77c-1.67,1.61-5.58,1.93-7.77.22-2-1.57-2-4.42-2-5.94a8.89,8.89,0,0,1,2-5.95c1.48-1.69,3.34-2.23,6-3,2.81-.8,5-.84,4.95-1a14.87,14.87,0,0,0-4,0,55.09,55.09,0,0,0-5.95,1c-4.43.76-6.65,1.14-7.93,0-1.65-1.46-1.07-4.54-1-4.95,1.11-5.55,8.31-8.31,9.91-8.92,7.19-2.76,12-.69,12.89-3,.81-2-2-5.59-5-6.94a23.72,23.72,0,0,0-5-1c-4.63-.71-5.52-.57-6.44-1.49a5.23,5.23,0,0,1-1-5c.91-3,4.48-4.17,6.94-4.95a17.83,17.83,0,0,1,11.89,0c4.09,1.54,6.25,4.27,9.91,8.92a45.34,45.34,0,0,1,5.95,9.91c2.22,5.07,1.36,5.63,3,8.92,2.63,5.37,7,8.15,12.89,11.89,3.51,2.24,7.29,4.64,12.89,5.95,3.18.75,5.75.83,10.9,1,9.88.32,10.46-.77,12.88,0C466.22,318.82,471.36,347.33,463,352.92Z"/><path class="cls-6" d="M481.35,356.39a44.48,44.48,0,0,0,6.94-5,48.76,48.76,0,0,0,6.94-6.94c3-3.78,6-7.45,6.93-12.88h0a56,56,0,0,0-1-10.91c-1.6-6.64-9.92-10.5-12.88-11.89a37.57,37.57,0,0,0-10.91-3,37,37,0,0,0-9.91-1c-3.17.12-5.31.19-6.94,1-7.87,3.88-4.41,25.1-4,27.75.5,2.93,4.39,25.69,13.88,26.76C473.66,360.71,477.46,358.57,481.35,356.39Z"/><path class="cls-11" d="M467,220.1c1-1,3.71-3.27,6.94-3,5.47.5,8.21,8,8.92,11.89a18.05,18.05,0,0,1-5.95,16.85c-1.44,1.18-6,4.9-9.91,3-2.5-1.22-4-4.35-4-7.93"/><path class="cls-11" d="M467.47,226.54c.29,0,3.87-.49,5.95,2s1,6.11,0,7.92a8.33,8.33,0,0,1-3,3"/><ellipse class="cls-11" cx="391.65" cy="357.38" rx="17.35" ry="19.82"/><path class="cls-10" d="M567.58,431.71c2.3-4.42,11.27-20.36,30.73-27.75a57.13,57.13,0,0,1,28.74-3"/><path class="cls-7" d="M461.53,348.46a108,108,0,0,0,40.63-25.77v9.91l-5.94,9.91-9.91,8.92-9.92,6.94-5.94,2-5-3-4-5.95Z"/><path class="cls-6" d="M495.23,281.06c5.37-3.83,11.89-8.38,19.82-9.91a79.32,79.32,0,0,1,7.93-1c5.18-.43,7.81-.63,9.91,0,2.76.84,4.28,2.4,6.94,5,8.89,8.56,7.33,6,11.89,10.9,12.28,13.11,11.46,18.55,20.82,25.77,5.06,3.91,7.61,4.11,12.88,6.94,10.17,5.47,9.57,9.19,26.34,28,1.6,1.8,3,3.73,2.41,4.68s-2.74.66-12.89-2c-3.63-.95-6.63-1.77-8.72-2.35,0,0-2.13-.35-5.16-.63a146.84,146.84,0,0,0-40.63,2c-20.94,5.36-30.92,11.33-35.69,14.86-16.24,12.07-17.84,13.88-17.84,13.88-2,2.26-3.4,4.22-4.95,4-3.61-.59-4.65-12.56-5-22.79-6.67-32.31-7.78-43.69-6.94-46.59a14.83,14.83,0,0,0,1-4.95c0-3.1.05-5.34,0-5.95C476.88,294.1,490.13,284.68,495.23,281.06Z"/><path class="cls-4" d="M632,430.72c-6.9,2.1-13.42,10.31-13.88,10.91a42.48,42.48,0,0,0-6.94,12.88,22.51,22.51,0,0,0-1,5.95c-.07,2.36-.11,4.18,1,6s3.42,3.55,5,3,1.72-3.1,2-5a48.32,48.32,0,0,1,5-15.86c2.38-4.14,5.88-10.23,11.89-11.89,1.46-.4,3.59-.69,4-2s-1.18-3.24-3-4A6,6,0,0,0,632,430.72Z"/><path class="cls-7" d="M494.23,426.76a21.93,21.93,0,0,0-5.94,8.92c-3.32,9.53,1.44,18.3,3,20.81a26.22,26.22,0,0,0,3,4q3-3.46,5.95-6.94l-3-4a19.35,19.35,0,0,1,4-16.85Z"/><path class="cls-12" d="M638,504.07a28.31,28.31,0,0,0,5.95-7.93c1.94-3.88,2.27-7.09,3-11.89,2.08-14.27,1.91-17.95,4-25.77a29.09,29.09,0,0,1,4.95-10.91c1.07-1.38,5.19-6.8,8.93-5.94a5.39,5.39,0,0,1,3,2,5.57,5.57,0,0,1,1,3c.87,13-1,29.74-1,29.74s-.57,5.08-2,12.88a26.6,26.6,0,0,1-3,8.92,13.81,13.81,0,0,1-3,4c-3.46,3-8,3-12.89,3A43.11,43.11,0,0,1,638,504.07Z"/><path class="cls-4" d="M498.2,448.56c-4.5,1-3.46,6.88-8.92,9.92-7.08,3.92-19.47-.1-21.88-4.92-.23-.47-.81-1.82-1.91-2-1.49-.28-3.18,1.51-4,3a7.71,7.71,0,0,0,0,6.94c.52,1,1.94,3.19,7.93,5,4.05,1.19,6.81,1.21,23.64.26,3.24-.19,4.94-.3,7.08-1.26.57-.25,8.79-4,7.93-9.91C507.47,451.11,502.05,447.74,498.2,448.56Z"/><path class="cls-13" d="M429.31,503.57A72.41,72.41,0,0,0,445.67,509c7.11,1.45,12.63,1.47,20.32,1.48a128.35,128.35,0,0,0,18.83-1c7.88-1,15.56-2.11,24.28-6.44a61.41,61.41,0,0,0,10.9-6.94v-10.9c-.56.35-1.42.88-2.47,1.48a78.64,78.64,0,0,1-11.9,5.95,87.29,87.29,0,0,1-18.83,5,101.9,101.9,0,0,1-39.65-1,98.45,98.45,0,0,1-17.84-5.95Z"/><path d="M421.94,193.86c-.45,3.33-2.79,5.65-5.23,5.18s-4-3.55-3.59-6.88a6.18,6.18,0,0,1,3.1-4.89,3.38,3.38,0,0,1,2.12-.29C420.78,187.45,422.39,190.53,421.94,193.86Z"/><path class="cls-4" d="M638,464.24c0,5.76-2.67,10.27-6,10.09s-5.93-5-5.93-10.71,2.65-10.25,5.93-10.1S638,458.48,638,464.24Z"/><path class="cls-7" d="M495.23,453.52a14.87,14.87,0,0,1,2,14.87c0,.22,0,.57,0,1a44.64,44.64,0,0,0,2,11.89c.57,2.28.19,1.74,1,12.89.34,4.66.69,8.69,1,11.89a34.85,34.85,0,0,0,4-1A37.78,37.78,0,0,0,520,496.14v-10.9a51.14,51.14,0,0,0-2-5.95,53.61,53.61,0,0,0-10.9-16.85v-3a6.64,6.64,0,0,0,1-2,7.6,7.6,0,0,0,0-4c-1.09-3.67-6-4.73-6.94-5-1.53-.37-2.78-.68-4,0C495,449.84,495.21,453.34,495.23,453.52Z"/><path class="cls-7" d="M619.12,460.46c.48,0-.36,8.11,3,15.86,3.07,7.14,8.77,11.81,13.87,14.86a25.52,25.52,0,0,1-3,2,25,25,0,0,1-7.93,3c-5.1.83-9.24-.88-11.9-2a29.3,29.3,0,0,1-10.9-7.93,13.39,13.39,0,0,1,1-3,14.38,14.38,0,0,1,4-5,24.22,24.22,0,0,1,10.9-5C618.51,463.05,618.85,460.46,619.12,460.46Z"/><path class="cls-7" d="M630,440.63a58.82,58.82,0,0,1,11.9,2,57.57,57.57,0,0,1,6,2l2-2,5.94-5.95-15.85-1h-3Z"/><path class="cls-7" d="M575.51,429.73l19.82-15.86c.28,1,.61,2,1,3,4.52,11.67,14.76,18.32,21.81,21.8l6-4.95a18.61,18.61,0,0,1-6.94-1c-14.6-5.12-16.76-27.7-16.85-28.75a29.21,29.21,0,0,0-6.94,1c-11.38,3.07-17.66,12.3-19.82,15.86Z"/><path class="cls-7" d="M600.29,349.45a36.72,36.72,0,0,1-3,25.77,8.57,8.57,0,0,0,0,2c.45,4.11,3.7,6.81,4.95,7.93,2.71,2.41,6.32,6.46,10.9,13.88L600.29,404q0,.5,0,1c.08,4.18,1.2,10.07,6,16.85,2.67-1.74,5.66-3.73,8.92-5.94,7.49-5.1,9.62-6.82,10.9-9.92a13.4,13.4,0,0,0,1-5.94,15.1,15.1,0,0,0-2-5.95c-1-1.86-1.78-2.94-5-6.94-6.9-8.69-7.57-9.3-8.92-9.91s-2.37-.83-3-2c-.73-1.4,0-2.9,1-6a71.06,71.06,0,0,0,2-6.94,22.11,22.11,0,0,0,0-8.92c-1.56-.67-3.21-1.34-5-2Q603.14,350.29,600.29,349.45Z"/><path class="cls-9" d="M395.12,415.86a7.83,7.83,0,0,1-1-2,8.1,8.1,0,0,1-.2-4.23c-.59,0-1.4.16-2.78.27a45.06,45.06,0,0,1-5.94,0c-4.77-.19-6-1-6.94,0s-.7,2.79,0,4c.43.74,1.14,1.33,3,2s4.1,1.08,8.92,1c5-.11,5.64-.6,5.95-1l.05-.09Z"/><path class="cls-7" d="M525,124.45c-5.81,15.48-10,28.47-12.88,37.67C505,185,501,198.13,499.19,216.63c-1.87,18.93-.15,30,1,35.68a104.34,104.34,0,0,0,6.94,21.81l14.87-5c-.4-1.55-1-4-2-6.94-2-6.38-3.22-8.25-4-11.89a30.94,30.94,0,0,1,0-10.9c2.51-19.46,5-28.75,5-28.75,5.25-19.92,7.87-29.89,10.9-38.65a377.65,377.65,0,0,1,18.83-44.6c1.22-2.49,2.25-4.54,3-6v-4h-3l-5,2-5,5-10.9,9.91Q527.43,129.41,525,124.45Z"/><path class="cls-7" d="M576.5,309.8c5.27-3.51,14.13,0,31.72,6.94,14.63,5.77,20.65,9.75,22.36,11.27a10,10,0,0,0,2.42,1.61,11.51,11.51,0,0,0,5.94,1c3.62-.3,4.75-2.2,9.92-5a130.93,130.93,0,0,1,13.87-6c2.24-.83,3.81-1.35,5-3,2.06-2.91.72-6.51,2-6.94.92-.31,2.7,1.24,3,3,.07.45.27,2.33-4,6-3.09,2.65-3.75,2.11-9.91,5.95a96.62,96.62,0,0,0-8.15,5.59c-1,.76-1.11.88-1.76,1.35a24.15,24.15,0,0,1-7.93,4c-4.13,1-7.62,0-10.91-1a38.13,38.13,0,0,1-6.93-3c-5.05-2.54-7.6-4.36-11.9-6.94-2.51-1.51-6.2-3.62-10.9-5.95a54.89,54.89,0,0,1-7.93-1,55.92,55.92,0,0,1-9.91-3l-8.92-2A11,11,0,0,1,576.5,309.8Z"/><path class="cls-11" d="M535.86,420.81a23.24,23.24,0,0,0,3-3c1.6-1.92,1.94-2.86,3-4,1.58-1.68,3.13-1.9,6-3a45.94,45.94,0,0,0,7.93-4"/><path class="cls-7" d="M507.12,432.71c16.1-16.17,17.07-20.43,24.78-24.78a69.39,69.39,0,0,1,11.89-5c4.77-1.57,6.36-1.61,9.91-3a44,44,0,0,0,11.9-6.94,8.8,8.8,0,0,1,0,3c-.43,2.39-.83,3.73-9.91,10.91h0s-.05,2.56,0,3c.08.71,1.19,1.64,5.71,2.6l5.19-.62,1,2c.22.47.56,1.16,1,2,2.34,4.44,3.75,5.62,5,7.93,1.71,3.25,2.88,8.5,1,9.91s-6.18-1.47-6.94-2l-4-5.94-2-5-2-5.95-8.92-1-4-1h-3l-4,4-8.92,8.92L521,434.69l-5,3h-3l-6.94-4Z"/><path class="cls-11" d="M544.78,412.88a25.82,25.82,0,0,0,4,1,29.85,29.85,0,0,0,8.92,0,109.06,109.06,0,0,0,11.89-2"/><path class="cls-7" d="M517,271.15a78.17,78.17,0,0,1,30.73,26.76,75,75,0,0,1,7.93,15.86,22.19,22.19,0,0,0,5.94,4,26.83,26.83,0,0,0,8.92,2c5.54.74,9.26,4,14.87,8.92a52.14,52.14,0,0,1,13.88,19.83c1.28.34,2.61.67,4,1,3.81.88,7.46,1.52,10.91,2a3.87,3.87,0,0,0,0-2c-.48-1.64-2.09-2.44-3-3-1.69-1-2-1.89-5-5.94-6.23-8.4-9.36-12.58-11.9-14.87a58.07,58.07,0,0,0-11.89-7.93c-4.73-2.56-5.16-2.17-7.93-4-4.11-2.67-5.94-5.36-10.9-11.9-2.59-3.4-6.5-8.54-10.91-13.87-5.65-6.84-8.8-10-12.88-12.89a26.71,26.71,0,0,0-6.94-4A24.9,24.9,0,0,0,517,271.15Z"/><path class="cls-7" d="M564.61,303.85a28.3,28.3,0,0,0,12.88,4l-3,3h-3Q568.07,307.33,564.61,303.85Z"/><path class="cls-7" d="M460.53,345.48a54,54,0,0,1-20.81,3,56.8,56.8,0,0,1-21.81-5.95,60.07,60.07,0,0,1-23.78-21.81,7.55,7.55,0,0,1-3,0c-2.92-.59-3.55-2.6-5.94-4-3.32-1.89-5.2.23-9.92-1a16.11,16.11,0,0,1-6.93-4,11.23,11.23,0,0,0,0,3c.16,1.26.46,3.51,2,4.95,2,1.88,5.46,2.3,6.94,1,.46-.41.48-.79,1-1,1.15-.46,2.64.88,4,2a55.38,55.38,0,0,0,6.94,5c3.52,2.05,4,1.23,5.95,3s1.76,2.77,4,5a18.64,18.64,0,0,0,4,3c7.64,4.64,9.9,9.68,18.83,13.88a31.51,31.51,0,0,0,9.91,3,29.33,29.33,0,0,0,6.94,0l23.79-1Q461.53,349.45,460.53,345.48Z"/><path class="cls-7" d="M380.25,302.86a47.43,47.43,0,0,1-10.9-2,4.53,4.53,0,0,1-3-2c-1-2,.69-4.51,1-5l-4,4-1,3,1,2,1,2,4,1,7.93-2Z"/><path class="cls-7" d="M373.31,269.16c-.54.78-1.51,2.43-1,4,.17.51.61,1.31,4,3,3.74,1.85,4.89,1.69,5.94,3,.67.82,1.33,2.26,1,5l-4-4-4,1-4-2-2-1-1-3v-2l1-2,3-2Z"/><path class="cls-7" d="M468.46,249.34a8.85,8.85,0,0,0,5,2c4.06.22,6.87-2.82,7.93-4,3.78-4.09,3.9-9.33,4-11.9a23.39,23.39,0,0,0-2-9.91,35.64,35.64,0,0,1,0,5.95,37,37,0,0,1-1,5.95l-2,5-4,5Z"/><path class="cls-7" d="M395.12,329.62Q402.54,366.29,410,403a22.13,22.13,0,0,1-5.95,3,22.65,22.65,0,0,1-8.92,1,7.59,7.59,0,0,0-1,2,8,8,0,0,0,0,4.95,7.83,7.83,0,0,0,1,2,68.53,68.53,0,0,0,25.77-6.94l7.93-6.94c.06-.13,1.41-2.71,0-5a4.15,4.15,0,0,0-3-2,4.07,4.07,0,0,0-3,1l-1-6.94q-5-19.81-9.91-39.64l-2-5.95Z"/><path class="cls-9" d="M363.4,324.67a17.88,17.88,0,0,0,11.89,0c-.05,1.86-.09,4.61,0,7.93a153.87,153.87,0,0,0,4,29.73c3.82,17.75,8,33.45,10.9,43.61v1h-10.9q-3-14.38-5.95-28.75-4.95-25.77-9.91-51.54Z"/><path class="cls-10" d="M425.84,395c1.2.11,2.12,1.45,2.48,2.48.95,2.68-1,5.59-2,6.94-1.24,1.75-5.37,6.78-21.31,10.4,0,0-17.26,3.92-26.27-.49-1.05-.52-3.38-1.69-4-4-.27-1-.38-3.09,1-4a3.65,3.65,0,0,1,3,0c5.09,1.77,17.88,1,22.3.5,7.54-.91,18.55-5.68,21.81-9.92C423.2,396.59,424.42,394.91,425.84,395Z"/><path class="cls-10" d="M369.35,309.8a14.15,14.15,0,0,1-4,1,14.73,14.73,0,0,1-6.94-1"/><text class="cls-14" transform="translate(59.12 88.17) rotate(6.77)"><tspan class="cls-15">S</tspan><tspan class="cls-16" x="45.97" y="0">t</tspan><tspan class="cls-17" x="87.57" y="0">a</tspan><tspan x="131.66" y="0">y </tspan><tspan class="cls-18" x="0" y="125.09">f</tspan><tspan x="45.55" y="125.09">r3</tspan><tspan class="cls-19" x="160.74" y="125.09">a</tspan><tspan class="cls-20" x="208.38" y="125.09">k</tspan><tspan x="254.67" y="125.09">y</tspan></text><path class="cls-1" d="M35.32,245.37c-1.19-.3-3.21-.27-4,1-.93,1.55.8,3.72,1,4a5.4,5.4,0,0,0,4,2c.55,0,2.37.05,3-1C40.21,249.76,38.19,246.1,35.32,245.37Z"/><path class="cls-1" d="M21.45,245.37a3.39,3.39,0,0,0-4,1c-1.17,1.6,0,3.87,1,4.95,1.8,1.89,5.15,2.14,6,1,.47-.67,0-1.76-1-4C22.68,246.64,22.28,245.78,21.45,245.37Z"/><path class="cls-1" d="M5.59,238.44c-.93-.34-3.67-1.32-5,0s-.42,4.28,1,5.94a5.77,5.77,0,0,0,6,2c1.16-.39,2.78-1.44,3-3C10.85,241,7.38,239.08,5.59,238.44Z"/></g></g></svg>