<svg xmlns="http://www.w3.org/2000/svg" viewBox="0 0 751.57 556"><defs><style>.cls-1{fill:#ff9bbe;}.cls-10,.cls-14,.cls-15,.cls-2,.cls-5{fill:#fff;}.cls-3{fill:#ffdf00;}.cls-11,.cls-12,.cls-13,.cls-14,.cls-3,.cls-4,.cls-5,.cls-7,.cls-9{stroke:#000;stroke-width:2px;}.cls-11,.cls-12,.cls-13,.cls-3,.cls-4,.cls-5,.cls-7,.cls-9{stroke-miterlimit:10;}.cls-4,.cls-6{fill:#009ae4;}.cls-7{fill:#ff2c1f;}.cls-10,.cls-8{opacity:0.1;}.cls-9{fill:#888;}.cls-11,.cls-12{fill:none;}.cls-12{stroke-linecap:round;}.cls-13{fill:#daefed;}.cls-14{stroke-linejoin:round;}.cls-15{font-size:104.24px;font-family:BlowBrush;}.cls-16{letter-spacing:-0.07em;}.cls-17{letter-spacing:-0.04em;}.cls-18{letter-spacing:-0.05em;}.cls-19{letter-spacing:0em;}.cls-20{letter-spacing:-0.02em;}.cls-21{letter-spacing:-0.06em;}</style></defs><title>bart+background</title><g id="Laag_2" data-name="Laag 2"><g id="Laag_1-2" data-name="Laag 1"><rect class="cls-1" width="750" height="556"/><path class="cls-2" d="M122.6,280.39c.92-1.72,3.27-2.27,5-2,2.36.4,2.54,2.29,4.95,3,2.22.63,3.24-.65,6-1,3.72-.47,5.21,1.5,9.91,3,3.93,1.23,7,1.14,11.89,1,3.07-.09,3.57-.37,13.88-2,9.22-1.43,10.75-1.51,12.89-1,4.22,1,4.46,2.83,8.92,5,6.5,3.1,12.9,2.56,19.82,2,8.92-.75,9.48-2.68,15.86-2a54.76,54.76,0,0,1,11.89,3c3.75,1.36,4.8,2.16,6.94,3,6.64,2.53,12.51.88,17.84,0,13.92-2.28,26.41.31,34.14,1.91,10.45,2.17,11.95,4.33,19.38,4,4.74-.18,8-1.2,15.86-1a48,48,0,0,1,9.91,1c6.42,1.41,6.34,3,11.9,4,5.31.95,6.18-.35,11.89,1,4.21,1,4,1.75,6.94,2,4.23.33,6.14-1.13,9.91,0,2.32.69,1.69,1.26,4,2,5.36,1.7,9.13-1.37,11.89,1,.89.76.87,1.4,2,2,1.87,1,4,.29,5,0,4.83-1.43,14.17-2.62,17.84,1,.85.83.93,1.47,2,2,2.14,1,4.28-.39,6.94-1a16.24,16.24,0,0,1,8.92,1c8.69,3.58,9.51,21.84,6.94,22.79-1.95.73-5.55-8.56-10.9-7.92-2.05.24-3.73,1.85-5.95,1-1.7-.66-2.35-2.24-3-2-1,.41.73,4.33-1,5.95a3.17,3.17,0,0,1-4,0c-.68-.67-.5-1.59-.49-3.47,0-3.16,0-5.25-1-6.94s-3.64-3.68-5.94-3a5.26,5.26,0,0,0-3.29,5.1c.1,1.21.78,2,.31,2.83a2,2,0,0,1-2,1c-1.51-.36-.87-3.34-3-5.95a10.21,10.21,0,0,0-5-3c-3.62-1.29-4,0-6.94-1-3.71-1.31-8.07-5.2-8.92-5.95a3.05,3.05,0,0,0-2-1c-1.28,0-2.39,1.23-4,3a12.48,12.48,0,0,1-2,2c-.94.7-1.42,1.06-2,1-1.41-.18-1.5-2.75-3-3a2.54,2.54,0,0,0-2,1,4.6,4.6,0,0,0-1,3c-.17,2.29.62,3.38,0,4a1.65,1.65,0,0,1-2,0c-1.66-1.36,2-6.05,0-9.91a4.36,4.36,0,0,0-2-2c-.74-.34-2.17-.69-3,0s-.17,1.94-1,3a3.38,3.38,0,0,1-3,1c-2.71-.37-2.52-4-5.95-5.94a48.71,48.71,0,0,0-5.94-1c-4.55-.66-6.4-.9-6.94,0a5.42,5.42,0,0,0,0,2c.14,2,.36,2.6,0,3-.53.54-1.81.07-2,0-2.67-1-2.38-4.19-5-5.94a7.09,7.09,0,0,0-4-1c-6-.29-11.86-1.91-17.84-2-18.19-.21-27.29-.32-35.69-2-7.29-1.44-9.06-2.68-17.84-4-9-1.32-13.65-1.94-18.83,0a24.2,24.2,0,0,1-6.94,2,23.29,23.29,0,0,1-8.92-1c-12.61-3.39-13.42-5.27-19.82-6-5-.54-4.72.6-10.9,0s-6.91-1.83-13.88-3c-4-.66-8-.78-15.86-1-9.9-.27-10.48.36-12.51-.06a6.8,6.8,0,0,0-3.35.06,7,7,0,0,0-2,1c-2.42,1.48-6,.75-7.93,0-3.19-1.27-2.79-3.1-5.95-4a9.2,9.2,0,0,0-5,0c-2.21.66-2.25,1.71-4,2a6.12,6.12,0,0,1-5.94-3C122.87,284.47,121.59,282.27,122.6,280.39Z"/><path class="cls-3" d="M566.64,442.94a37.94,37.94,0,0,0-14.86,11.89c-11.68,15.85-5.74,35.26-5,37.67l-1,25.77,29.73-6.94c.09-6.87.05-12.37,0-15.86-.17-14-.7-18.66,2.48-23.29a18.34,18.34,0,0,1,8.43-6.44Z"/><path class="cls-4" d="M544.84,497.45c-9.6,6.14-17.28,11.68-22.8,15.86-9.63,7.3-13.29,10.88-12.88,14.87.34,3.39,3.49,5.89,6.93,7.93,26.21,15.54,64.46,2.09,74.34-3,2.84-1.46,5.89-3.53,6.94-6.94s-.3-6.57-2-9.91a88.06,88.06,0,0,0-13.88-19.83,40,40,0,0,1-36.67,1Z"/><path class="cls-5" d="M681.62,522.23a13.28,13.28,0,0,0-1,9.92c1.53,5,6,7.4,6.94,7.93a17.81,17.81,0,0,0,8.92,2c4.12,0,16.21.44,32.69.8a13,13,0,0,0,6.46-1.3c5.7-2.91,7.54-10,8.92-17.84A181.79,181.79,0,0,0,747,486.55c-.19-5.82-2.1-9-5-10.9-4.82-3.21-11.42-.62-12.89,0a33.39,33.39,0,0,0-8.31,3.94c-10,6.61-14.36,17.58-16.43,22.72l0,.1A59.9,59.9,0,0,0,701,514.8C692.42,513.4,684.64,516.5,681.62,522.23Z"/><path class="cls-4" d="M568.63,418.16c-2.44,1.87-4.44,3.58-6,5a81.21,81.21,0,0,0-5.95,5.94c-2.43,2.73-3.65,4.09-4,5-.65,1.77-.8,4.7,5.94,14.87,3.82,5.74,5.72,8.62,8.92,11.89,3.41,3.48,9.54,6.94,21.81,13.88a7.18,7.18,0,0,0,3,1,9,9,0,0,0,6-2c6-4.25,12.6-11.66,16.85-15.86,3.16-3.12,4.63-6.73,7.93-6.94,1.37-.09,1.48.44,4,1,5.84,1.3,8.58-.81,10.91,1,1.16.9,1.08,1.89,2,5,1.2,4.07,3.07,10.42,6.94,12.88,2.64,1.68,5.87,1.3,10.9,0,12.68-3.26,22.76-8.54,32.71-14.86,11.19-7.11,14.37-10.54,14.87-14.87a16.72,16.72,0,0,0-1-6.94c-1.19-3.54-3.44-6-7.93-10.9-4.88-5.32-7.31-8-8.7-8.75a3,3,0,0,1-1.22-1.16,3.91,3.91,0,0,1,0-3c.74-2.29,1-4.76,2-6.94,2.35-5,.71-13.7,0-15.85-3.52-10.57-35.56-14-62.45-6.94C597.78,387.93,578.89,406,568.63,418.16Z"/><path class="cls-3" d="M651.88,461.77a48.55,48.55,0,0,0,7.93,16.85c9.88,13.4,23.87,17.61,28.75,18.83a20,20,0,0,0,8.92-3c10-6.34,9.93-19.62,9.91-20.81-1-.22-2.33-.54-4-1a74.74,74.74,0,0,1-8.92-3c-5.21-2.37-8.26-6.62-9.91-8.92-6.26-8.73-6.15-18.39-6-21.8-10.92-1.71-20.7,1.21-24.77,7.93a14.39,14.39,0,0,0-2,5.94Z"/><path class="cls-6" d="M645.94,469.7c2.3-4.42,11.26-20.36,30.72-27.75a57.16,57.16,0,0,1,28.75-3l-13.88-9.92-24.78-2L644,451.86Q644.94,460.79,645.94,469.7Z"/><path class="cls-4" d="M711.35,473.67c3.59-1,7-.69,13.88,0,2.9.29,5.29.68,6.94,1,.45.22,1,.55,1,1,0,1-2.33,1.73-3,2-3.22,1.28-5.76,6.43-7.93,19.82-1.45,8.89-.64,8.51-2,15.86-1.64,9-2.53,13.49-5.94,16.85-5.55,5.47-13.37,5-13.88,5-4.9-.37-8.45-2.85-12.88-6-4-2.79-5.56-3.33-6-4.95-.76-3.13,2.32-6.27,3.47-7.44,4.11-4.18,9.57-4.83,11.89-4.95a57.23,57.23,0,0,1-1-12.89c.23-6,.39-10.24,3-14.87C699.81,482.56,703.81,475.84,711.35,473.67Z"/><path class="cls-7" d="M448.69,313.1v21.8H459.6V312.11Z"/><path class="cls-8" d="M448.69,313.1v21.8H459.6V312.11Z"/><path class="cls-7" d="M440.76,356.71l17.85,93.17a56.35,56.35,0,0,0,26.76-3A55.76,55.76,0,0,0,502.22,437l-19.83-86.23c-24,1.16-31.75,2.67-33.7,4a11.6,11.6,0,0,1-4.95,2A11.09,11.09,0,0,1,440.76,356.71Z"/><path class="cls-9" d="M440.76,356.71a9.57,9.57,0,0,1-2.57-.75,6.39,6.39,0,0,1-3.37-3.22c-.1-.23-1.1-2.63,0-4,.6-.73,1.28-.48,2-1,1.65-1.22.48-4.58.5-7.44,0-6,5.29-10.37,5.91-10.87l0,0c5.14-4.11,18.18-3.59,21.31,2.48,3.87,7.47-9.66,18.8-10.9,19.82C453.65,351.75,446.73,357.46,440.76,356.71Z"/><path class="cls-10" d="M443.74,349.77a10,10,0,0,1-5.95-1,6,6,0,0,0,0,2c.54,3.08,3.43,4.68,4,5h4.95v-6.94A9.27,9.27,0,0,1,443.74,349.77Z"/><path class="cls-10" d="M440.38,342.67a9.45,9.45,0,0,0-.61,5.12,6.54,6.54,0,0,0,3,1,6.61,6.61,0,0,0,4-1l3-4h0c-4.3.68-6.2,1-7.93,0A5,5,0,0,1,440.38,342.67Z"/><path class="cls-9" d="M504.2,433c1.19.11,2.11,1.45,2.48,2.48.94,2.68-1,5.59-2,6.94-1.24,1.75-5.37,6.78-21.32,10.4,0,0-17.25,3.92-26.26-.49-1.05-.52-3.38-1.7-4-4-.26-1-.38-3.09,1-4a3.61,3.61,0,0,1,3,0c5.08,1.77,17.87,1,22.3.49C487,444,498,439.25,501.23,435,501.56,434.58,502.77,432.9,504.2,433Z"/><path class="cls-11" d="M440.76,356.71a9.57,9.57,0,0,1-2.57-.75,6.39,6.39,0,0,1-3.37-3.22c-.1-.23-1.1-2.63,0-4,.6-.73,1.28-.48,2-1,1.65-1.22.48-4.58.5-7.44,0-6,5.29-10.37,5.91-10.87l0,0c5.14-4.11,18.18-3.59,21.31,2.48,3.87,7.47-9.66,18.8-10.9,19.82C453.65,351.75,446.73,357.46,440.76,356.71Z"/><path class="cls-3" d="M541.37,390.9c-1.13.76-2.16.86-5,1-17,.82-25.49,1.23-33.7-2a50.19,50.19,0,0,1-11.4-6.44c-10.2-7.23-10.93-12.28-19.82-17.84-4.73-3-8.72-4.16-10.9-6.94-.36-.45-1.65-2.2-3-2a2.16,2.16,0,0,0-1.15.77c-1.66,1.61-5.58,1.93-7.77.22-2-1.57-2-4.43-2-5.95a9,9,0,0,1,2-5.94c1.49-1.69,3.35-2.23,5.95-3,2.81-.81,5-.84,5-1a14.46,14.46,0,0,0-4,0,55.32,55.32,0,0,0-5.94,1c-4.44.76-6.65,1.14-7.93,0-1.66-1.46-1.08-4.55-1-4.95,1.11-5.55,8.32-8.31,9.92-8.92,7.18-2.76,11.95-.69,12.88-3,.81-2-2-5.58-4.95-6.94a24.62,24.62,0,0,0-5-1c-4.63-.7-5.53-.57-6.44-1.48a5.2,5.2,0,0,1-1-5c.91-3,4.48-4.17,6.93-4.95a17.86,17.86,0,0,1,11.9,0c4.09,1.54,6.24,4.27,9.91,8.92a45.75,45.75,0,0,1,6,9.91c2.22,5.07,1.36,5.63,3,8.92,2.63,5.37,7,8.15,12.89,11.89,3.51,2.24,7.29,4.64,12.88,5.95,3.18.74,5.76.83,10.9,1,9.89.32,10.46-.78,12.89,0C544.57,356.8,549.71,385.32,541.37,390.9Z"/><path class="cls-3" d="M654.36,315.58c3.23.54,6.53,1.19,9.91,2a168.24,168.24,0,0,1,43.61,16.85c.23-.5.56-1.19,1-2,1.34-2.45,5.16-9.39,11.89-10.91,1-.23,5.11-1.15,6.94,1,1.51,1.78.93,5,0,6.94-1.23,2.56-3.12,3-4,5.95-.18.65-.7,2.46,0,3,.5.36,1.59.08,6.94-4,5.11-3.86,6.06-5.07,7.93-5a6.08,6.08,0,0,1,5,4c1.44,4.25-3.49,9.38-5,10.9-2.34,2.43-4.22,3.29-4,4,.61,1.6,11.34-3.13,14.86,1a5.17,5.17,0,0,1,1,4c-.42,2.42-2.68,3.55-10.9,7.93-5.29,2.82-8,4.25-8.92,5-4.2,3.08-4.55,4.68-7.93,5.94a20.24,20.24,0,0,1-7.93,1,30.8,30.8,0,0,1-6.94-1c-10.81-2.88-19.89-13-30.72-15.86-2.59-.69-2.43-.17-6.94-1-7.42-1.34-12.85-2.39-17.35-6.44a15.74,15.74,0,0,1-4-5c-3.32-6.76-.84-14.76,2-20.81C652.05,320.53,653.2,318.05,654.36,315.58Z"/><path class="cls-3" d="M555.24,338.37a3.28,3.28,0,0,1-1,0c-2.44-.45-2.47-4-5-4.95-.37-.15-.39-.08-3,0a41.06,41.06,0,0,1-5.94,0,8.43,8.43,0,0,1-6-5.95c-.2-.78-.94-3.7,1-6a6.37,6.37,0,0,1,5-2l-12.89-14.87h-1c-21.81,0-25.17,0-29.73-2-2.13-.93-1.08-.79-6.94-4-6.91-3.74-8.94-4.24-10.91-6.94-.57-.79-3.24-4.64-2-7.93.62-1.62,1.56-1.46,4-4a22,22,0,0,0,4.95-7.93,18.7,18.7,0,0,0,1-5.94c-.48,0-1.16,0-2,0a21.41,21.41,0,0,1-5.95-1c-1.86-.64-5.33-1.82-6.93-5a11.29,11.29,0,0,1-1-4,11.67,11.67,0,0,1,0-5,10.11,10.11,0,0,1,4.95-6,10,10,0,0,1,3-1h12.89v-2c0-11.94.08-18,1.49-22.3a26.88,26.88,0,0,1,6.44-10.41,10,10,0,0,1-2-1,9.76,9.76,0,0,1-3-3,8.61,8.61,0,0,1,0-7.93,9.72,9.72,0,0,1,6.94-5,13.77,13.77,0,0,0,1-2,14.58,14.58,0,0,0,1-5.95c-.11-4.63.95-9.24,1-13.87,0-5.2.64-16.74,2.9-43.77-.08-.51-.05-.78.07-.84.36-.15,1.56,1.62,3.62,5.33.06.34.17.55.34.62q1.32.56,7.15-9.54c.25-1.07.55-1.33.78-1.36,1.29-.2,4.64,6,4.75,10.24,0,.21,0,.56.21.66.9.44,4.54-5.26,7.49-10.17.08-.42.23-.66.44-.73q1.63-.57,8.31,13.55c.08.76.29,1.2.61,1.31q1.59.59,7-9.18c.33-1.38.68-1.69.94-1.72,1.25-.12,4.22,6,4.53,12.12,0,.81,0,1.62.42,1.76,1.06.38,3.92-4.85,6.26-9.53.06-.54.23-1.18.68-1.38,1-.42,2.68,1.63,3,2s3.93,4.9,3,9.91c-.13.66-.41,1.72,0,2s1.38-.49,2-1a54.17,54.17,0,0,0,6-5.95c.21-.43.53-.93,1-1,1.17-.15,2.46,2.59,3,4a13.15,13.15,0,0,1,1,6.93c-.08.51-.18.85,0,1,.73.6,4.66-2.89,8.13-6.21,1-1.58,1.5-1.8,1.79-1.72l.07,0c1.22.69,2.41,11.5,2.41,11.5.07.66.13,1.13.49,1.35,1.25.77,4.65-2.46,7.43-5.45.43-.52,1.48-1.7,2.48-1.49.59.13,1.22.76,2,4a36.68,36.68,0,0,1,1,7.54c-.27.94-.14,1.26,0,1.38.83.63,5.13-2.33,8.18-6.21.91-1.16,1.19-1.75,1.74-1.72,1.61.09,4,5.48,3.68,10.16,0,.59-.16,1.46.28,1.73.79.49,2.43-1.47,5-3,.71-.42,5.36-3.18,6.93-2,2.24,1.7-1.94,11.27-9.91,28.74C620,188.36,609,212.4,601.83,236.28c-.44,1.47-1,3.52-1.71,6.07-2.94,11.31-6.14,23.5-5.23,38.53A106.25,106.25,0,0,0,598.94,303c.36,1.17.49,1.54.49,1.54.66,1.84,1,2.14.91,2.58-.24,1.5-4.68,2-4.94,2h0c-7.82,1-17.84,7.93-17.84,7.93A85.72,85.72,0,0,0,564.66,328a27.85,27.85,0,0,1-5,7.92A7.18,7.18,0,0,1,555.24,338.37Z"/><path class="cls-12" d="M621.16,160.46l-9.91,9.91c-.94,1-1.59,1.06-2,1-2-.35-1.64-5.45-5.39-10.56-1.13-1.54-1.7-2.31-2.54-2.32-2.09,0-3.08,4.52-8.19,9.32-1.31,1.24-2,1.62-2.71,1.58-2.64-.14-4.55-5.48-5.15-7.16a22.63,22.63,0,0,1-.8-2.75"/><path class="cls-12" d="M512.13,131.71c1.24,4.34,2.44,7.87,3.35,10.43,1.14,3.16,1.63,4.24,2.6,4.44,2.2.47,5.34-3.82,6.72-6.15s1.54-3.69,2.2-3.76c1-.11,2.79,2.74,5.94,15.86"/><ellipse class="cls-5" cx="509.65" cy="231.82" rx="18.34" ry="25.77"/><path class="cls-5" d="M528,305.17c5.39-2.86,14-6.36,23.79-5.95,4.55.19,7.5,1.15,9.91,3,.8.61,5.71,4.47,4.95,8.93-.65,3.79-5,5.69-7.93,6.93-7.36,3.19-14.64,2.08-18.83,1Z"/><line class="cls-12" x1="537.9" y1="301.2" x2="550.78" y2="320.04"/><line class="cls-12" x1="548.8" y1="299.22" x2="561.69" y2="316.07"/><path class="cls-12" d="M721.27,345.81a53.48,53.48,0,0,0-19.83-14.87"/><path class="cls-7" d="M621.16,315.08c-.87,4,5.39,5.05,13.87,16.85,4.58,6.38,9.94,13.83,10.47,15a6,6,0,0,0,1.25,1.74l.18.15c1.61,1.26,4.4.75,5.94,0,3.32-1.61,4.16-5.85,5-9.91a33.4,33.4,0,0,0-1-16.85,34.19,34.19,0,0,0-4-7.93c-2.07-3.18-3.1-4.77-5-5.95-4.13-2.62-9.22-1.25-13.88,0C627.94,309.78,622,311.39,621.16,315.08Z"/><path class="cls-11" d="M541.37,390.9c-1.13.76-2.16.86-5,1-17,.82-25.49,1.23-33.7-2a50.19,50.19,0,0,1-11.4-6.44c-10.2-7.23-10.93-12.28-19.82-17.84-4.73-3-8.72-4.16-10.9-6.94-.36-.45-1.65-2.2-3-2a2.16,2.16,0,0,0-1.15.77c-1.66,1.61-5.58,1.93-7.77.22-2-1.57-2-4.43-2-5.95a9,9,0,0,1,2-5.94c1.49-1.69,3.35-2.23,5.95-3,2.81-.81,5-.84,5-1a14.46,14.46,0,0,0-4,0,55.32,55.32,0,0,0-5.94,1c-4.44.76-6.65,1.14-7.93,0-1.66-1.46-1.08-4.55-1-4.95,1.11-5.55,8.32-8.31,9.92-8.92,7.18-2.76,11.95-.69,12.88-3,.81-2-2-5.58-4.95-6.94a24.62,24.62,0,0,0-5-1c-4.63-.7-5.53-.57-6.44-1.48a5.2,5.2,0,0,1-1-5c.91-3,4.48-4.17,6.93-4.95a17.86,17.86,0,0,1,11.9,0c4.09,1.54,6.24,4.27,9.91,8.92a45.75,45.75,0,0,1,6,9.91c2.22,5.07,1.36,5.63,3,8.92,2.63,5.37,7,8.15,12.89,11.89,3.51,2.24,7.29,4.64,12.88,5.95,3.18.74,5.76.83,10.9,1,9.89.32,10.46-.78,12.89,0C544.57,356.8,549.71,385.32,541.37,390.9Z"/><path class="cls-7" d="M559.7,394.37a43.87,43.87,0,0,0,6.94-4.95,48.78,48.78,0,0,0,6.94-6.94c3-3.79,6-7.45,6.94-12.89h0a55.83,55.83,0,0,0-1-10.9c-1.6-6.65-9.92-10.5-12.89-11.89a63.61,63.61,0,0,0-20.81-4c-3.17.12-5.31.19-6.94,1-7.87,3.89-4.42,25.1-4,27.76.5,2.92,4.39,25.69,13.87,26.76C552,398.7,555.82,396.56,559.7,394.37Z"/><path class="cls-12" d="M545.33,258.09c1-1,3.71-3.27,6.94-3,5.47.51,8.22,8,8.92,11.9a18.06,18.06,0,0,1-6,16.85c-1.44,1.18-6,4.9-9.91,3-2.5-1.23-4-4.35-4-7.93"/><path class="cls-12" d="M545.83,264.53c.29,0,3.87-.49,5.95,2s1,6.12,0,7.93a8.26,8.26,0,0,1-3,3"/><ellipse class="cls-12" cx="470" cy="395.36" rx="17.35" ry="19.82"/><path class="cls-11" d="M645.94,469.7c2.3-4.42,11.26-20.36,30.72-27.75a57.16,57.16,0,0,1,28.75-3"/><path class="cls-8" d="M539.88,386.44a107.58,107.58,0,0,0,40.64-25.77v9.92q-3,4.95-5.95,9.91l-9.91,8.92-9.91,6.94-6,2-4.95-3-4-5.94Z"/><path class="cls-7" d="M573.58,319c5.38-3.82,11.9-8.37,19.82-9.91a79.8,79.8,0,0,1,7.93-1c5.18-.44,7.81-.64,9.92,0,2.75.84,4.28,2.4,6.93,5,8.89,8.56,7.33,6,11.9,10.9,12.27,13.11,11.45,18.54,20.81,25.77,5.06,3.91,7.61,4.1,12.89,6.94,10.16,5.46,9.56,9.19,26.33,28,1.6,1.8,3,3.73,2.41,4.68s-2.74.66-12.88-2c-3.64-.95-6.64-1.77-8.72-2.36,0,0-2.13-.34-5.16-.62a147.13,147.13,0,0,0-40.64,2c-20.93,5.37-30.92,11.33-35.68,14.87-16.25,12.07-17.84,13.88-17.84,13.88-2,2.26-3.4,4.22-5,4-3.61-.59-4.65-12.56-4.95-22.79-6.67-32.31-7.78-43.69-6.94-46.59a15.1,15.1,0,0,0,1-4.95c0-3.1,0-5.34,0-5.95C555.23,332.09,568.48,322.67,573.58,319Z"/><path class="cls-5" d="M710.36,468.71c-6.9,2.1-13.41,10.31-13.87,10.9a42.57,42.57,0,0,0-6.94,12.89,22.34,22.34,0,0,0-1,5.95c-.08,2.36-.11,4.18,1,5.94s3.42,3.56,5,3,1.73-3.1,2-5a48.62,48.62,0,0,1,5-15.86c2.38-4.14,5.88-10.23,11.9-11.89,1.46-.41,3.58-.69,4-2s-1.18-3.25-3-4A5.92,5.92,0,0,0,710.36,468.71Z"/><path class="cls-8" d="M572.59,464.75a22,22,0,0,0-6,8.92c-3.32,9.52,1.44,18.3,3,20.81a26.22,26.22,0,0,0,3,4q3-3.48,5.95-6.94l-3-4a19.34,19.34,0,0,1,4-16.85Z"/><path class="cls-13" d="M716.31,542.06a28.31,28.31,0,0,0,6-7.93c1.94-3.88,2.27-7.09,3-11.9,2.08-14.26,1.91-17.94,4-25.77a28.93,28.93,0,0,1,5-10.9c1.07-1.39,5.19-6.81,8.92-5.95a5.35,5.35,0,0,1,3,2,5.6,5.6,0,0,1,1,3c.87,13-1,29.73-1,29.73s-.56,5.09-2,12.89a26.39,26.39,0,0,1-3,8.92,13.81,13.81,0,0,1-3,4c-3.46,3-8,3-12.89,3A43,43,0,0,1,716.31,542.06Z"/><path class="cls-5" d="M576.55,486.55c-4.49,1-3.45,6.88-8.92,9.91-7.07,3.93-19.46-.09-21.87-4.91-.24-.47-.81-1.82-1.91-2-1.49-.28-3.19,1.51-4,3a7.74,7.74,0,0,0,0,6.94c.52,1,1.94,3.18,7.93,4.95,4.05,1.2,6.81,1.22,23.64.26,3.24-.18,4.94-.29,7.09-1.25.57-.25,8.79-4,7.93-9.91C585.82,489.1,580.41,485.73,576.55,486.55Z"/><path class="cls-14" d="M507.67,541.56A72.36,72.36,0,0,0,524,547c7.11,1.46,12.64,1.47,20.32,1.49a129.69,129.69,0,0,0,18.83-1c7.88-1,15.56-2.11,24.29-6.44a62,62,0,0,0,10.9-6.94v-10.9c-.57.35-1.43.87-2.48,1.48A80.38,80.38,0,0,1,584,530.66a87.72,87.72,0,0,1-18.83,5,101.5,101.5,0,0,1-39.65-1,97.77,97.77,0,0,1-17.84-5.94Z"/><path d="M500.3,231.85c-.45,3.33-2.79,5.65-5.23,5.18s-4.05-3.55-3.6-6.88a6.22,6.22,0,0,1,3.11-4.89,3.37,3.37,0,0,1,2.12-.29C499.13,225.44,500.74,228.52,500.3,231.85Z"/><path class="cls-5" d="M716.31,502.23c0,5.76-2.67,10.27-6,10.09s-5.93-5-5.93-10.72,2.65-10.25,5.93-10.09S716.31,496.47,716.31,502.23Z"/><path class="cls-8" d="M573.58,491.51a14.78,14.78,0,0,1,3,6.94,15,15,0,0,1-1,7.93v1a44.55,44.55,0,0,0,2,11.89c.57,2.28.18,1.74,1,12.89.33,4.66.69,8.69,1,11.89a35.23,35.23,0,0,0,4-1,37.9,37.9,0,0,0,14.87-8.92v-10.9a51.14,51.14,0,0,0-2-6,53.61,53.61,0,0,0-10.9-16.85v-3a7.07,7.07,0,0,0,1-2,7.72,7.72,0,0,0,0-4c-1.1-3.68-6-4.73-6.94-5-1.53-.37-2.79-.68-4,0C573.36,487.83,573.57,491.32,573.58,491.51Z"/><path class="cls-8" d="M697.48,498.45c.48,0-.36,8.11,3,15.85,3.08,7.14,8.77,11.81,13.88,14.87a26.81,26.81,0,0,1-3,2,24.6,24.6,0,0,1-7.93,3c-5.09.83-9.23-.89-11.89-2a29.33,29.33,0,0,1-10.9-7.93,13.45,13.45,0,0,1,1-3,14.43,14.43,0,0,1,4-5,24.25,24.25,0,0,1,10.91-5C696.86,501,697.21,498.45,697.48,498.45Z"/><path class="cls-8" d="M708.38,478.62a58.73,58.73,0,0,1,11.89,2,56.78,56.78,0,0,1,6,2l2-2,5.95-5.95-15.86-1h-3Z"/><path class="cls-8" d="M653.87,467.72l19.82-15.86q.42,1.49,1,3c4.52,11.68,14.76,18.33,21.81,21.81l5.94-5a18.27,18.27,0,0,1-6.94-1c-14.6-5.11-16.76-27.7-16.85-28.74a29.13,29.13,0,0,0-6.93,1C660.33,446,654,455.24,651.88,458.8,652.54,461.77,653.2,464.75,653.87,467.72Z"/><path class="cls-8" d="M678.64,387.44a36.44,36.44,0,0,1,1,11.89,36.91,36.91,0,0,1-4,13.88,9.17,9.17,0,0,0,0,2c.46,4.11,3.7,6.81,5,7.93,2.71,2.41,6.31,6.46,10.9,13.87l-12.89,5v1c.09,4.18,1.21,10.07,6,16.85,2.67-1.74,5.67-3.73,8.92-6,7.5-5.1,9.63-6.81,10.91-9.91a13.74,13.74,0,0,0,1-5.95,15.23,15.23,0,0,0-2-5.94c-1-1.86-1.78-2.94-4.95-6.94-6.9-8.69-7.58-9.3-8.92-9.91s-2.37-.83-3-2c-.72-1.4,0-2.9,1-5.95s1.7-5.67,2-6.94a22.11,22.11,0,0,0,0-8.92c-1.56-.67-3.21-1.34-5-2C682.53,388.66,680.54,388,678.64,387.44Z"/><path class="cls-10" d="M473.47,453.84a7.91,7.91,0,0,1-1-2,8,8,0,0,1-.19-4.23c-.6,0-1.4.16-2.78.27a45.2,45.2,0,0,1-5.95,0c-4.77-.19-6-1-6.94,0s-.69,2.79,0,4c.44.73,1.15,1.33,3,2s4.09,1.09,8.92,1c5.05-.1,5.63-.6,5.94-1a.56.56,0,0,0,.05-.08Z"/><path class="cls-8" d="M603.32,162.44c-5.81,15.48-10,28.46-12.89,37.66-7.06,22.85-11,36-12.88,54.52-1.88,18.93-.15,30,1,35.68a104.54,104.54,0,0,0,6.94,21.81l14.86-5c-.39-1.56-1-4-2-6.94-2-6.38-3.23-8.25-4-11.89a30.7,30.7,0,0,1,0-10.9c2.51-19.47,5-28.75,5-28.75,5.25-19.93,7.88-29.89,10.9-38.65a376.65,376.65,0,0,1,18.84-44.61c1.21-2.48,2.25-4.53,3-5.94v-4h-3l-5,2q-2.48,2.49-5,5l-10.9,9.91Z"/><path class="cls-8" d="M654.86,347.79c5.27-3.51,14.12,0,31.71,6.94,14.63,5.77,20.65,9.75,22.36,11.27a10.45,10.45,0,0,0,2.42,1.61,11.4,11.4,0,0,0,5.95,1c3.61-.3,4.74-2.19,9.91-5a128.8,128.8,0,0,1,13.88-5.95c2.23-.83,3.81-1.35,4.95-3,2.07-2.91.72-6.51,2-6.94.92-.31,2.7,1.23,3,3,.07.45.26,2.33-4,5.95-3.1,2.64-3.75,2.11-9.92,6a96.62,96.62,0,0,0-8.15,5.59c-1,.76-1.1.88-1.76,1.34a23.84,23.84,0,0,1-7.93,4c-4.12,1-7.61,0-10.9-1a37.9,37.9,0,0,1-6.94-3c-5.05-2.53-7.6-4.36-11.89-6.93-2.51-1.51-6.2-3.63-10.91-6a54.82,54.82,0,0,1-17.84-4l-8.92-2A11,11,0,0,1,654.86,347.79Z"/><path class="cls-12" d="M614.22,458.8a24.7,24.7,0,0,0,3-3c1.61-1.92,1.94-2.87,3-4,1.57-1.68,3.13-1.9,5.94-3a45.06,45.06,0,0,0,7.93-4"/><path class="cls-8" d="M585.48,470.69c16.09-16.16,17.06-20.42,24.77-24.78a68.89,68.89,0,0,1,11.9-5c4.77-1.57,6.36-1.61,9.91-3A43.7,43.7,0,0,0,644,431.05a8.55,8.55,0,0,1,0,3c-.42,2.38-.82,3.72-9.91,10.9h0s0,2.56,0,3c.08.71,1.19,1.64,5.72,2.6l5.19-.62,1,2c.22.47.55,1.16,1,2,2.33,4.44,3.74,5.63,5,7.93,1.71,3.26,2.89,8.51,1,9.91s-6.18-1.46-6.93-2l-4-5.94-2-5-2-5.95-8.92-1-4-1h-3l-4,4-8.92,8.93-9.91,8.92-5,3h-3l-6.94-4Z"/><path class="cls-12" d="M623.14,450.87a26.86,26.86,0,0,0,4,1,30.19,30.19,0,0,0,8.92,0,111.69,111.69,0,0,0,11.9-2"/><path class="cls-8" d="M595.39,309.13a78.26,78.26,0,0,1,30.72,26.76A74.5,74.5,0,0,1,634,351.75a21.87,21.87,0,0,0,6,4c3.79,1.7,6.82,1.7,8.92,2,5.54.73,9.25,4,14.87,8.92a52.27,52.27,0,0,1,13.87,19.82c1.29.35,2.61.68,4,1,3.81.88,7.45,1.52,10.9,2a3.76,3.76,0,0,0,0-2c-.47-1.64-2.09-2.44-3-3-1.69-1-1.95-1.89-5-5.95-6.22-8.39-9.36-12.57-11.89-14.86a57.7,57.7,0,0,0-11.9-7.93c-4.72-2.57-5.16-2.17-7.93-4-4.1-2.67-5.93-5.35-10.9-11.89-2.58-3.4-6.49-8.55-10.9-13.88-5.65-6.84-8.81-10-12.89-12.88a27.14,27.14,0,0,0-6.93-4A25,25,0,0,0,595.39,309.13Z"/><path class="cls-8" d="M643,341.84a28.67,28.67,0,0,0,6.94,3,29.24,29.24,0,0,0,6,1l-3,3h-3Z"/><path class="cls-8" d="M538.89,383.47a53.93,53.93,0,0,1-20.81,3,56.71,56.71,0,0,1-21.81-5.94,60.18,60.18,0,0,1-23.79-21.81,7.49,7.49,0,0,1-3,0c-2.92-.59-3.56-2.6-5.95-4-3.32-1.89-5.19.23-9.91-1a16.08,16.08,0,0,1-6.94-4,11.6,11.6,0,0,0,0,3c.17,1.27.46,3.52,2,5,2,1.88,5.47,2.3,6.94,1,.47-.42.49-.79,1-1,1.16-.46,2.64.88,4,2a55.38,55.38,0,0,0,6.94,5c3.51,2.05,4,1.23,5.94,3s1.77,2.77,4,5a19.27,19.27,0,0,0,4,3c7.65,4.63,9.91,9.67,18.83,13.88a31.83,31.83,0,0,0,9.92,3,29.24,29.24,0,0,0,6.93,0l23.79-1Z"/><path class="cls-8" d="M458.61,340.85a48.1,48.1,0,0,1-10.91-2,4.57,4.57,0,0,1-3-2c-1-2,.69-4.52,1-5l-4,4c-.33,1-.66,2-1,3,.34.66.67,1.32,1,2l1,2,4,1,7.93-2Z"/><path class="cls-8" d="M451.67,307.15c-.54.78-1.52,2.42-1,4,.17.5.61,1.31,4,3,3.75,1.85,4.89,1.68,5.95,3,.67.82,1.33,2.26,1,5l-4-4-4,1-4-2-2-1-1-3v-2l1-2,3-2Z"/><path class="cls-8" d="M546.82,287.33a8.85,8.85,0,0,0,5,2c4.05.22,6.87-2.82,7.92-4,3.79-4.09,3.91-9.33,4-11.9a23.7,23.7,0,0,0-2-9.91,36.29,36.29,0,0,1-1,11.89c-.66,1.66-1.33,3.31-2,5l-4,5Z"/><path class="cls-8" d="M473.47,367.61q7.44,36.67,14.87,73.35a22.29,22.29,0,0,1-14.87,4,7.87,7.87,0,0,0-1,6.94,7.91,7.91,0,0,0,1,2,67.79,67.79,0,0,0,7.93-1,68.71,68.71,0,0,0,17.84-5.94l7.93-6.94c.07-.13,1.41-2.71,0-5a4.1,4.1,0,0,0-3-2,4,4,0,0,0-3,1c-.33-2.31-.66-4.63-1-6.94q-5-19.81-9.91-39.64l-2-5.95Z"/><path class="cls-10" d="M441.76,362.66a17.87,17.87,0,0,0,11.89,0c0,1.86-.09,4.61,0,7.93a153.16,153.16,0,0,0,4,29.73c3.82,17.74,8,33.45,10.91,43.61v1H457.61l-5.94-28.74q-5-25.77-9.91-51.54Z"/><path class="cls-11" d="M504.2,433c1.19.11,2.11,1.45,2.48,2.48.94,2.68-1,5.59-2,6.94-1.24,1.75-5.37,6.78-21.32,10.4,0,0-17.25,3.92-26.26-.49-1.05-.52-3.38-1.7-4-4-.26-1-.38-3.09,1-4a3.61,3.61,0,0,1,3,0c5.08,1.77,17.87,1,22.3.49C487,444,498,439.25,501.23,435,501.56,434.58,502.77,432.9,504.2,433Z"/><path class="cls-11" d="M447.7,347.79a14.42,14.42,0,0,1-4,1,14.71,14.71,0,0,1-6.94-1"/><text class="cls-15" transform="translate(137.47 126.16) rotate(6.77)"><tspan class="cls-16">S</tspan><tspan class="cls-17" x="45.97" y="0">t</tspan><tspan class="cls-18" x="87.57" y="0">a</tspan><tspan x="131.66" y="0">y </tspan><tspan class="cls-19" x="0" y="125.09">f</tspan><tspan x="45.55" y="125.09">r3</tspan><tspan class="cls-20" x="160.74" y="125.09">a</tspan><tspan class="cls-21" x="208.38" y="125.09">k</tspan><tspan x="254.67" y="125.09">y</tspan></text><path class="cls-2" d="M113.68,283.36c-1.2-.3-3.21-.27-4,1-.92,1.56.81,3.73,1,4a5.37,5.37,0,0,0,4,2c.55,0,2.36,0,3-1C118.57,287.75,116.55,284.09,113.68,283.36Z"/><path class="cls-2" d="M99.8,283.36a3.37,3.37,0,0,0-4,1c-1.17,1.61,0,3.88,1,5,1.8,1.89,5.15,2.14,6,1,.46-.67,0-1.77-1-4C101,284.63,100.64,283.76,99.8,283.36Z"/><path class="cls-2" d="M83.94,276.42c-.92-.33-3.67-1.31-5,0s-.43,4.28,1,5.95a5.75,5.75,0,0,0,6,2c1.16-.38,2.78-1.43,3-3C89.2,279,85.74,277.07,83.94,276.42Z"/></g></g></svg>