<svg xmlns="http://www.w3.org/2000/svg" viewBox="0 0 648.29 121.26"><defs><style>.cls-1{fill:#fff;}</style></defs><title>flessenonder</title><g id="Laag_2" data-name="Laag 2"><g id="Laag_1-2" data-name="Laag 1"><path class="cls-1" d="M395.78,121.26h48A3,3,0,0,0,444,121a4.7,4.7,0,0,0,.25-2.61c-.08-1-.2-2.23-.4-3.66l-.56-.67c1.12-7.48-.26-11.41-1.82-13.62-.49-.7-1.65-2.16-3.36-4.71-1.39-2.07-2.44-3.83-3.11-5l.78-3.38.12-.51,1.82.61c.38-1.88.76-3.75,1.13-5.63a1.17,1.17,0,0,0-.35-.79,1.24,1.24,0,0,0-.46-.29c.06-.28.13-.56.19-.84l.85.19a7.69,7.69,0,0,0,.83-3.55,3.29,3.29,0,0,0-.45-1.89,3.11,3.11,0,0,0-2.05-1.19c-5.58-1.52-9.74-2.48-11.06-2.66a6.1,6.1,0,0,0-2,.07,2.62,2.62,0,0,0-1.38.57,2.07,2.07,0,0,0-.57.94,26.6,26.6,0,0,0-.95,4.06l.78.09a.74.74,0,0,1-.12.51,1,1,0,0,1-1.26.06l-1.51,5.71,2,.48c-.27,1.42-.54,2.84-.82,4.26a25.58,25.58,0,0,0-10.94,5.66,25.07,25.07,0,0,0-7,10.14,12.82,12.82,0,0,1-.49,1.32,15.66,15.66,0,0,1-1.23,2.21,7.54,7.54,0,0,0-.95,3.34l-.38.09s.09.39.27,1.13a1.88,1.88,0,0,0-1.13.28c-.16.1-.44.32-.91,1.57a7.22,7.22,0,0,0-.63,2.71,5.64,5.64,0,0,0,.11,1.09,9.77,9.77,0,0,0-1.42,3.77C395.8,121,395.79,121.13,395.78,121.26Z"/><path class="cls-1" d="M584.53,44.09a17.55,17.55,0,0,1-.08,2.53,7.52,7.52,0,0,0,.68,3.41l-.29.26.76.88a1.9,1.9,0,0,0-.88.76c-.09.16-.24.48-.08,1.81a7.21,7.21,0,0,0,.68,2.7,6,6,0,0,0,.59.92,9.72,9.72,0,0,0,.48,4c.57,1.64,1.58,2.76,3.59,5,1.75,1.93,3.07,3,4.44,5.5.15.27.27.49.34.63a20.61,20.61,0,0,0,.07,8.77c0,.23.11.45.17.67a10.58,10.58,0,0,0-1,6.54,10.4,10.4,0,0,0,2.33,5l7.54,27.82h44.45l-.34-.75-.38-.8q-4-17.62-8-35.24a9.4,9.4,0,0,0,0-5.19,26.29,26.29,0,0,0-2.63-4.71c-.61-1-1.13-1.78-1.48-2.31a1.39,1.39,0,0,0,.29-1,1.42,1.42,0,0,0-.54-.84c-.51-.42-1.68-2-4.45-6.86.16-.65,2.41-9.69,2.44-13.7a3.92,3.92,0,0,0-.93-3,3.18,3.18,0,0,0-1.82-.79,1.94,1.94,0,0,0,1-1.14c.14-.52-.07-1-.47-1.85a3.34,3.34,0,0,0-.89-1.39,2.71,2.71,0,0,0-1.22-.59,3.48,3.48,0,0,0,.46-1.73,4.62,4.62,0,0,0-1-2.44c-.52-.84-1.2-1.89-2-3.07l-.8-.33c-2.44-7.17-5.47-10-7.87-11.27-.76-.39-2.46-1.16-5.15-2.64-2.18-1.21-3.92-2.29-5.06-3l-.86-3.37-.12-.5,1.89-.3L606.67,7a1.3,1.3,0,0,0-.68-.54,1.09,1.09,0,0,0-.55,0l-.21-.85.84-.21a7.64,7.64,0,0,0-.89-3.54A3.22,3.22,0,0,0,603.91.3a3.09,3.09,0,0,0-2.36-.12c-5.66,1.21-9.8,2.27-11,2.71a6.25,6.25,0,0,0-1.73,1,2.61,2.61,0,0,0-1,1.15,2.16,2.16,0,0,0-.09,1.09,27.94,27.94,0,0,0,1,4l.73-.27a.68.68,0,0,1,.13.5,1,1,0,0,1-1.09.64q.63,2.88,1.28,5.77l2-.52,1.23,4.17a25.65,25.65,0,0,0-7.13,10.05,25.15,25.15,0,0,0-1.57,12.22A10.29,10.29,0,0,1,584.53,44.09Z"/><path class="cls-1" d="M138.62,79.93l.56-.56a.73.73,0,0,1,.32.41,1,1,0,0,1-.74,1l3.54,4.74,1.63-1.3c.95,1.1,1.89,2.2,2.84,3.29a25.46,25.46,0,0,0-2.38,12.1A25.16,25.16,0,0,0,148,111.42a11.13,11.13,0,0,1,.73,1.2,16.44,16.44,0,0,1,1,2.34,7.65,7.65,0,0,0,2,2.83l-.16.35,1.05.49a2,2,0,0,0-.49,1.06c0,.18,0,.52.61,1.57h59.57c-.75-.58-1.8-1.29-3.34-2.32-1-.64-1.76-1.16-2.3-1.5a1.35,1.35,0,0,0-.13-1,1.41,1.41,0,0,0-.84-.55c-.63-.17-2.36-1.17-6.87-4.42-.12-.66-1.77-9.83-3.39-13.5a3.93,3.93,0,0,0-2.08-2.34,3.13,3.13,0,0,0-2,0,2,2,0,0,0,.41-1.44c-.09-.53-.45-.85-1.19-1.5a3.56,3.56,0,0,0-1.38-.9,2.81,2.81,0,0,0-1.35,0,3.58,3.58,0,0,0-.29-1.76,4.65,4.65,0,0,0-1.9-1.83c-.82-.56-1.86-1.23-3.11-2l-.87,0c-5.16-5.53-9.09-6.89-11.8-7-.85,0-2.72,0-5.77-.29-2.49-.21-4.52-.48-5.86-.68l-2.16-2.72-.33-.41,1.61-1-3.7-4.38a1.22,1.22,0,0,0-1.36,0l-.54-.68.68-.54a7.46,7.46,0,0,0-2.26-2.85,3.29,3.29,0,0,0-1.76-.83,3.07,3.07,0,0,0-2.2.86c-4.67,3.43-8,6.09-9,7a6,6,0,0,0-1.18,1.59,2.67,2.67,0,0,0-.41,1.44,2.22,2.22,0,0,0,.38,1A27.31,27.31,0,0,0,138.62,79.93Z"/><path class="cls-1" d="M61.52,121.26c.59-1.12,1.53-2.77,3-5.16.65-.17,9.66-2.54,13.19-4.44a3.9,3.9,0,0,0,2.17-2.26,3.18,3.18,0,0,0-.17-2,2,2,0,0,0,1.46.3c.52-.13.81-.52,1.4-1.3a3.55,3.55,0,0,0,.79-1.45,2.79,2.79,0,0,0-.07-1.35A3.58,3.58,0,0,0,85,103.2a4.62,4.62,0,0,0,1.67-2c.5-.87,1.09-2,1.72-3.26l-.09-.86c5.11-5.58,6.16-9.61,6.1-12.32,0-.85-.17-2.71-.16-5.78,0-2.5.12-4.54.22-5.89L97,70.69l.38-.35,1.18,1.51,4.08-4a1.29,1.29,0,0,0,.15-.85,1.11,1.11,0,0,0-.23-.5l.64-.59.59.63A7.44,7.44,0,0,0,106.47,64a3.17,3.17,0,0,0,.68-1.82,3,3,0,0,0-1-2.13c-3.78-4.38-6.69-7.51-7.68-8.39a6,6,0,0,0-1.68-1,2.62,2.62,0,0,0-1.47-.29,2.17,2.17,0,0,0-1,.45,26.44,26.44,0,0,0-3.05,2.84l.59.51a.71.71,0,0,1-.38.36,1,1,0,0,1-1.08-.66l-4.44,3.9,1.42,1.53-3.07,3.08A25.49,25.49,0,0,0,72,60.93a25.16,25.16,0,0,0-11.47,4.5,10.32,10.32,0,0,1-1.13.82,16,16,0,0,1-2.26,1.15,7.51,7.51,0,0,0-2.66,2.24l-.36-.14s-.15.38-.41,1.09a1.92,1.92,0,0,0-1.09-.41c-.19,0-.54,0-1.63.81a7.13,7.13,0,0,0-2,1.89,6,6,0,0,0-.52,1,9.69,9.69,0,0,0-3.28,2.34c-1.17,1.29-1.67,2.71-2.67,5.56-.86,2.46-1.2,4.15-2.69,6.54-.16.26-.3.46-.39.6a20.69,20.69,0,0,0-7.66,4.27l-.5.47a10.32,10.32,0,0,0-9.47,6.66L0,121.26Z"/></g></g></svg>