<svg xmlns="http://www.w3.org/2000/svg" viewBox="0 0 82.67 80.64"><defs><style>.cls-1{fill:#ec1861;}</style></defs><title>githubfooter</title><g id="Laag_2" data-name="Laag 2"><g id="Laag_1-2" data-name="Laag 1"><path class="cls-1" d="M77.12,20.59a41.12,41.12,0,0,0-15-15A40.48,40.48,0,0,0,41.33,0,40.45,40.45,0,0,0,20.59,5.54a41.14,41.14,0,0,0-15,15.05A40.45,40.45,0,0,0,0,41.33a40.2,40.2,0,0,0,7.88,24.3A40.51,40.51,0,0,0,28.25,80.56a2.43,2.43,0,0,0,2.16-.37,2.13,2.13,0,0,0,.7-1.62c0-.1,0-1.07,0-2.9s0-3.43,0-4.79l-1.24.21a15.07,15.07,0,0,1-3,.19,22.44,22.44,0,0,1-3.74-.37,8.46,8.46,0,0,1-3.61-1.62A6.87,6.87,0,0,1,17.11,66l-.53-1.24A13.62,13.62,0,0,0,14.88,62a6.46,6.46,0,0,0-2.34-2l-.38-.26a4.25,4.25,0,0,1-.7-.65,3.15,3.15,0,0,1-.48-.75c-.11-.26,0-.46.27-.62a3.34,3.34,0,0,1,1.56-.25l1.07.17a7.75,7.75,0,0,1,2.67,1.29,8.62,8.62,0,0,1,2.61,2.79,9.35,9.35,0,0,0,3,3.37,6.33,6.33,0,0,0,3.52,1.16,15.23,15.23,0,0,0,3.07-.27,10.59,10.59,0,0,0,2.42-.81,8.66,8.66,0,0,1,2.64-5.54,37.42,37.42,0,0,1-5.52-1,22,22,0,0,1-5.06-2.1,14.47,14.47,0,0,1-4.33-3.61,17.35,17.35,0,0,1-2.83-5.65A27,27,0,0,1,15,39.18a15.73,15.73,0,0,1,4.25-11.09q-2-4.89.38-11,1.56-.48,4.63.73a33.29,33.29,0,0,1,4.49,2.07c.95.57,1.71,1.06,2.29,1.45a39.12,39.12,0,0,1,20.67,0l2-1.29a29.32,29.32,0,0,1,4.95-2.37c1.9-.71,3.36-.91,4.36-.59q2.43,6.09.43,11A15.68,15.68,0,0,1,67.7,39.18a27,27,0,0,1-1.1,8.1,16.51,16.51,0,0,1-2.85,5.65,15.08,15.08,0,0,1-4.36,3.58,22,22,0,0,1-5.06,2.1,37.42,37.42,0,0,1-5.52,1q2.8,2.41,2.8,7.64V78.57a2.15,2.15,0,0,0,.68,1.62,2.32,2.32,0,0,0,2.12.37A40.43,40.43,0,0,0,74.78,65.63a40.14,40.14,0,0,0,7.89-24.3A40.46,40.46,0,0,0,77.12,20.59Z"/></g></g></svg>