<svg xmlns="http://www.w3.org/2000/svg" viewBox="0 0 82.67 82.67"><defs><style>.cls-1{fill:#ec1861;}</style></defs><title>instafooter</title><g id="Laag_2" data-name="Laag 2"><g id="Laag_1-2" data-name="Laag 1"><path class="cls-1" d="M56.83,0h-31A25.84,25.84,0,0,0,0,25.83v31A25.84,25.84,0,0,0,25.83,82.67h31A25.84,25.84,0,0,0,82.67,56.83v-31A25.84,25.84,0,0,0,56.83,0ZM74.92,56.83A18.12,18.12,0,0,1,56.83,74.92h-31A18.11,18.11,0,0,1,7.75,56.83v-31A18.1,18.1,0,0,1,25.83,7.75h31A18.11,18.11,0,0,1,74.92,25.83Z"/><path class="cls-1" d="M41.33,20.67A20.67,20.67,0,1,0,62,41.33,20.66,20.66,0,0,0,41.33,20.67Zm0,33.58A12.92,12.92,0,1,1,54.25,41.33,12.93,12.93,0,0,1,41.33,54.25Z"/><circle class="cls-1" cx="63.55" cy="19.12" r="2.75"/></g></g></svg>