<svg xmlns="http://www.w3.org/2000/svg" viewBox="0 0 82.67 82.67"><defs><style>.cls-1{fill:#ec1861;}</style></defs><title>linkedinfooter</title><g id="Laag_2" data-name="Laag 2"><g id="Laag_1-2" data-name="Laag 1"><path class="cls-1" d="M75.19,0H7.48A7.48,7.48,0,0,0,0,7.48V75.19a7.48,7.48,0,0,0,7.48,7.48H75.19a7.48,7.48,0,0,0,7.48-7.48V7.48A7.48,7.48,0,0,0,75.19,0ZM25.58,71.38a2.18,2.18,0,0,1-2.18,2.18H14.14A2.19,2.19,0,0,1,12,71.38V32.55a2.19,2.19,0,0,1,2.18-2.18H23.4a2.18,2.18,0,0,1,2.18,2.18ZM18.77,26.71a8.8,8.8,0,1,1,8.8-8.8A8.8,8.8,0,0,1,18.77,26.71ZM74,71.56a2,2,0,0,1-2,2H62.05a2,2,0,0,1-2-2V53.34c0-2.72.8-11.91-7.1-11.91-6.13,0-7.37,6.29-7.62,9.12v21a2,2,0,0,1-2,2H33.71a2,2,0,0,1-2-2V32.37a2,2,0,0,1,2-2h9.62a2,2,0,0,1,2,2v3.39c2.27-3.41,5.65-6,12.84-6,15.91,0,15.82,14.87,15.82,23v18.8Z"/></g></g></svg>