<svg xmlns="http://www.w3.org/2000/svg" viewBox="0 0 104 104"><defs><style>.cls-1{fill:#fff;}.cls-2{fill:#e3e3e2;}.cls-3{fill:#ff9bbe;}.cls-4{fill:#122e6b;}.cls-5{fill:#00aeef;}</style></defs><title>logo</title><g id="Laag_2" data-name="Laag 2"><g id="Laag_1-2" data-name="Laag 1"><circle class="cls-1" cx="52" cy="52" r="52"/><circle class="cls-2" cx="52" cy="52" r="45.5"/><path class="cls-3" d="M50.38,76.38a24.74,24.74,0,0,0,14.94-5.85c10.25-9,8-23.17,7.8-24.06L58.82,38a39.42,39.42,0,0,0-3.89.65,41.82,41.82,0,0,0-6.5,1.94,6.31,6.31,0,0,0-.65-1.3c-3.35-4.94-13.68-2.87-15-2.6a4.25,4.25,0,0,0-1.29.66,5.82,5.82,0,0,0-2,3.9c-.81,4.6-1.36,7.72,0,11.69,1.1,3.2,2.8,5.08,5.86,8.46a49.89,49.89,0,0,0,7.14,6.5Q46.49,72.14,50.38,76.38Z"/><circle class="cls-4" cx="40.63" cy="48.43" r="9.1"/><circle class="cls-5" cx="41.93" cy="50.37" r="1.62"/><path class="cls-3" d="M31.2,67a36.62,36.62,0,0,0-7.48,4.87c-2.89,2.46-5.55,4.72-6.5,8.46-.19.79-1.21,5.21,1,6.82,1.64,1.2,4.19.2,5.52-.32,3.67-1.45,5.73-4.24,7.81-7.16a38.69,38.69,0,0,0,4.54-8.44Z"/><path class="cls-5" d="M38.68,26.32a27.31,27.31,0,0,1-6.5,0c-4.4-.51-7.72-2.16-7.8-1.94a13.25,13.25,0,0,0,3.35,1.8c5.13,2.29,9.06,3.05,9,3.39s-2,.06-2.6,0c-8-.69-15.66,1.82-15.59,2.61.07,1,11.66.51,11.69,1.29s-7.81,1.22-7.79,2q0,.76,11.69,1.29a18,18,0,0,1,8.39,1.5c3.6,1.66,5.26,4.07,8.21,3.65,1.33-.18,1.62-.76,3.47-1.64a18,18,0,0,1,8.21-1.64Z"/><path class="cls-4" d="M34.78,24.38l39.65,23.4.64-3.9c1.35-8,2-11.63,1.31-15.6a12.17,12.17,0,0,0-1.31-3.9,11.74,11.74,0,0,0-2.6-3.26c-6.1-4-10.56-7-13.65-9.09C56.89,10.7,55.31,9.59,53,9.43c-3.8-.28-6.81,2.13-9.75,4.54A34.35,34.35,0,0,0,34.78,24.38Z"/><path class="cls-4" d="M71.82,41.28c4.37,2.91,17.08,11.62,24.06,19.5.94,1.06,1.45,1.74,1.3,1.94-.69.87-13.33-8-24.71-16.25C72.26,44.74,72,43,71.82,41.28Z"/><ellipse class="cls-3" cx="90.56" cy="57.64" rx="0.36" ry="4.59" transform="translate(-10.92 92.64) rotate(-51.51)"/><path class="cls-3" d="M38,95.22A14.37,14.37,0,0,1,40,88.07a9,9,0,0,0,1.31-2.6,10.4,10.4,0,0,0,0-4.54c-.18-1.62,0-4,1.94-7.15l19.5-2.6A11.72,11.72,0,0,1,64,73.12c1.16,2.2,1,3.61,1.94,6.5.77,2.39,1,1.86,1.31,3.26.56,2.71-.51,4-.66,7.15a15.84,15.84,0,0,0,.66,5.19,37.55,37.55,0,0,1-9.75,2.6A39.07,39.07,0,0,1,38,95.22Z"/><path class="cls-4" d="M42.57,96.53a29.19,29.19,0,0,1,.65-5.21c.84-3.76,1.33-6,3.25-7.14a6.35,6.35,0,0,1,7.15.64c1.47,1.33,1.63,3.27,2,7.15a34,34,0,0,1,0,5.85,32.6,32.6,0,0,1-6.5,0A33.7,33.7,0,0,1,42.57,96.53Z"/><path class="cls-3" d="M62.72,72.47c-3.06,4.1-3.18,6.42-2.6,7.81a8.65,8.65,0,0,1,1.31,3.25,7.67,7.67,0,0,1-.65,3.25,36.19,36.19,0,0,0-2,9.1c0,.86,0,1.56,0,1.94"/><path class="cls-4" d="M47.12,52.32c-4.46.73-6.63,2.47-7.8,3.9-1.66,2.06-2.06,4.5-4.54,6.5a10,10,0,0,1-3.25,2c-1,.33-1.37.24-2,.64-1.26.88-2,3-1.29,3.9.86,1.16,3.18-.62,5.19.66,1.85,1.16,1.17,3.44,2.93,4.22,1.28.57,2-.46,4.22-.32,1.9.11,2.88,1,4.23,1.62a13.46,13.46,0,0,0,9.43.32c4.31-1.47,7.31-6.32,8.12-12Z"/><circle class="cls-4" cx="58.5" cy="53.3" r="11.38"/><circle class="cls-3" cx="57.85" cy="52" r="5.2"/><circle class="cls-5" cx="58.5" cy="53.3" r="1.3"/></g></g></svg>