<svg xmlns="http://www.w3.org/2000/svg" viewBox="0 0 46.47 61"><defs><style>.cls-1,.cls-2{fill:#fff;}.cls-1{opacity:0.5;}</style></defs><title>pdf</title><g id="Laag_2" data-name="Laag 2"><g id="Laag_1-2" data-name="Laag 1"><polygon class="cls-1" points="16.21 2 2 14.68 2 59 45 59 45 2 16.21 2"/><path class="cls-2" d="M16.23,0,0,16.23V61H46.47V0ZM15.18,6.1v9.08H6.1ZM42.89,57.43H3.57V18.76H18.76V3.57H42.89Z"/><path class="cls-2" d="M12.87,26.49H8v10h3.38V34.06h1.45c2.8,0,4.58-1.46,4.58-3.78S15.67,26.49,12.87,26.49Zm-.21,5H11.42V29.1h1.24c.93,0,1.37.44,1.37,1.18S13.59,31.45,12.66,31.45Z"/><path class="cls-2" d="M18.69,26.49v10h4.95c3.36,0,5.67-1.91,5.67-5s-2.31-5-5.67-5Zm7.2,5a2.21,2.21,0,0,1-2.39,2.38H22.08V29.13H23.5A2.21,2.21,0,0,1,25.89,31.51Z"/><path class="cls-2" d="M34.07,33.32h4.19V30.76H34.07V29h4.78V26.49H30.68v10h3.39Z"/></g></g></svg>